<svg width="48" height="48" viewBox="0 0 100 100" fill="none" xmlns="http://www.w3.org/2000/svg">
<path d="M45.3594 2.64038C43.5989 0.880236 41.4796 0 38.9999 0H8.99997C6.52102 0 4.40098 0.880236 2.64039 2.64038C0.88024 4.40085 0 6.52088 0 8.99993V39.0002C0 41.4793 0.88024 43.5992 2.64039 45.3593C4.40087 47.1198 6.52102 48 8.99997 48H16C16.4579 48 16.8019 47.9842 17.031 47.9536C17.26 47.9221 17.489 47.7866 17.7183 47.5467C17.9477 47.3074 18.062 46.9583 18.062 46.5001C18.062 46.438 18.0565 45.7289 18.0462 44.3749C18.0356 43.0204 18.0305 41.9476 18.0305 41.1558L17.3117 41.2809C16.8534 41.3641 16.2752 41.4008 15.5772 41.3902C14.8796 41.3797 14.1554 41.3071 13.4055 41.1716C12.6552 41.0359 11.9576 40.7236 11.3117 40.2344C10.6661 39.7444 10.2078 39.1039 9.9369 38.3125L9.6243 37.5933C9.41601 37.1146 9.08808 36.5831 8.64008 36.0002C8.19207 35.4166 7.73904 35.0207 7.28075 34.8124L7.06195 34.6561C6.91626 34.5521 6.78087 34.4265 6.65576 34.2808C6.53087 34.1347 6.43718 33.9887 6.37468 33.8433C6.31218 33.6972 6.36406 33.5774 6.53087 33.4833C6.69768 33.3898 6.99945 33.3433 7.43716 33.3433L8.06193 33.4369C8.47874 33.5201 8.99406 33.7699 9.60898 34.1868C10.2235 34.6034 10.7286 35.145 11.1245 35.8114C11.6039 36.6658 12.1815 37.3164 12.8589 37.7644C13.5358 38.2129 14.2182 38.4368 14.9056 38.4368C15.593 38.4368 16.1867 38.3847 16.6869 38.281C17.1866 38.1765 17.6554 38.0199 18.0931 37.8116C18.2806 36.416 18.7911 35.3424 19.6241 34.5925C18.4368 34.4674 17.3691 34.2802 16.4209 34.03C15.4733 33.7797 14.494 33.3738 13.4837 32.8111C12.473 32.2485 11.6346 31.551 10.9679 30.7172C10.3013 29.8834 9.75422 28.7897 9.32746 27.436C8.90047 26.0814 8.68692 24.5188 8.68692 22.7481C8.68692 20.2275 9.51014 18.0813 11.1559 16.3106C10.3849 14.4149 10.4577 12.2901 11.3745 9.93576C11.9787 9.74816 12.8747 9.88892 14.0621 10.3577C15.2496 10.8268 16.1192 11.228 16.6715 11.5608C17.2238 11.8938 17.6663 12.1753 17.9997 12.4047C19.9376 11.863 21.9375 11.5923 23.9998 11.5923C26.0621 11.5923 28.0623 11.863 30.0003 12.4047L31.1878 11.6548C32.0006 11.1545 32.9588 10.6963 34.063 10.2798C35.1672 9.8632 36.0108 9.74849 36.5944 9.93609C37.5316 12.2905 37.6154 14.4152 36.8439 16.3109C38.4896 18.0817 39.3131 20.2278 39.3131 22.7484C39.3131 24.5194 39.0995 26.0874 38.6725 27.4516C38.2459 28.8162 37.6941 29.9103 37.0165 30.7332C36.3396 31.5562 35.4957 32.2484 34.4854 32.8113C33.4749 33.3735 32.4958 33.7803 31.5477 34.0297C30.5997 34.2799 29.5321 34.468 28.3447 34.5931C29.4273 35.5303 29.9689 37.009 29.9689 39.0302V46.4992C29.9689 46.8535 30.0205 47.1397 30.1247 47.3585C30.2296 47.5772 30.396 47.7278 30.6251 47.8117C30.8551 47.8949 31.0573 47.9469 31.2348 47.9676C31.4124 47.9885 31.6671 47.999 32.0005 47.999H39.0005C41.4794 47.999 43.5996 47.1188 45.3593 45.3583C47.1198 43.5978 48 41.4777 48 38.9988V8.99993C47.9998 6.52088 47.1195 4.40052 45.3594 2.64038Z" fill="#B99579"/>
</svg>
