<svg width="24" height="24" viewBox="0 0 24 24" fill="none" xmlns="http://www.w3.org/2000/svg">
<path d="M22.6797 1.32019C21.7995 0.440118 20.7398 0 19.5 0H4.49998C3.26051 0 2.20049 0.440118 1.3202 1.32019C0.44012 2.20043 0 3.26044 0 4.49996V19.5001C0 20.7397 0.44012 21.7996 1.3202 22.6796C2.20044 23.5599 3.26051 24 4.49998 24H7.99998C8.22896 24 8.40097 23.9921 8.51552 23.9768C8.63001 23.961 8.7445 23.8933 8.85915 23.7734C8.97386 23.6537 9.031 23.4792 9.031 23.2501C9.031 23.219 9.02826 22.8645 9.02312 22.1874C9.01781 21.5102 9.01523 20.9738 9.01523 20.5779L8.65584 20.6404C8.42669 20.682 8.13762 20.7004 7.78862 20.6951C7.43979 20.6899 7.07771 20.6535 6.70277 20.5858C6.32761 20.518 5.97878 20.3618 5.65583 20.1172C5.33305 19.8722 5.1039 19.552 4.96845 19.1562L4.81215 18.7966C4.708 18.5573 4.54404 18.2915 4.32004 18.0001C4.09604 17.7083 3.86952 17.5104 3.64038 17.4062L3.53097 17.3281C3.45813 17.276 3.39043 17.2133 3.32788 17.1404C3.26544 17.0674 3.21859 16.9943 3.18734 16.9217C3.15609 16.8486 3.18203 16.7887 3.26544 16.7417C3.34884 16.6949 3.49973 16.6717 3.71858 16.6717L4.03097 16.7185C4.23937 16.7601 4.49703 16.8849 4.80449 17.0934C5.11173 17.3017 5.3643 17.5725 5.56225 17.9057C5.80195 18.3329 6.09075 18.6582 6.42946 18.8822C6.7679 19.1064 7.10912 19.2184 7.45281 19.2184C7.7965 19.2184 8.09335 19.1924 8.34345 19.1405C8.59328 19.0883 8.82768 19.01 9.04654 18.9058C9.14029 18.208 9.39554 17.6712 9.81207 17.2963C9.21838 17.2337 8.68457 17.1401 8.21046 17.015C7.73663 16.8899 7.24698 16.6869 6.74185 16.4055C6.23649 16.1242 5.81728 15.7755 5.48393 15.3586C5.15064 14.9417 4.87711 14.3948 4.66373 13.718C4.45024 13.0407 4.34346 12.2594 4.34346 11.3741C4.34346 10.1137 4.75507 9.04064 5.57795 8.15532C5.19245 7.20744 5.22885 6.14507 5.68724 4.96788C5.98934 4.87408 6.43734 4.94446 7.03103 5.17886C7.62482 5.41342 8.05958 5.61399 8.33574 5.78042C8.61189 5.9469 8.83316 6.08766 8.99986 6.20237C9.96881 5.93152 10.9687 5.79613 11.9999 5.79613C13.031 5.79613 14.0311 5.93152 15.0001 6.20237L15.5939 5.82738C16.0003 5.57727 16.4794 5.34813 17.0315 5.13989C17.5836 4.9316 18.0054 4.87424 18.2972 4.96805C18.7658 6.14523 18.8077 7.2076 18.4219 8.15543C19.2448 9.04086 19.6565 10.1139 19.6565 11.3742C19.6565 12.2597 19.5498 13.0437 19.3363 13.7258C19.1229 14.4081 18.8471 14.9551 18.5082 15.3666C18.1698 15.7781 17.7479 16.1242 17.2427 16.4056C16.7375 16.6868 16.2479 16.8901 15.7738 17.0149C15.2998 17.14 14.7661 17.234 14.1723 17.2965C14.7136 17.7651 14.9844 18.5045 14.9844 19.5151V23.2496C14.9844 23.4267 15.0103 23.5698 15.0624 23.6792C15.1148 23.7886 15.198 23.8639 15.3125 23.9059C15.4276 23.9475 15.5286 23.9735 15.6174 23.9838C15.7062 23.9943 15.8335 23.9995 16.0002 23.9995H19.5002C20.7397 23.9995 21.7998 23.5594 22.6796 22.6792C23.5599 21.7989 24 20.7388 24 19.4994V4.49996C23.9999 3.26044 23.5598 2.20026 22.6797 1.32019Z" fill="#B99579"/>
</svg>
