<svg width="35" height="34" viewBox="0 0 35 34" fill="none" xmlns="http://www.w3.org/2000/svg">
<path fill-rule="evenodd" clip-rule="evenodd" d="M17.4703 28.8196C13.3503 26.918 8.29938 26.1795 5.11036 20.8623C6.61573 18.7207 7.48727 16.0622 7.48727 13.1636C7.48727 10.5789 6.77419 8.17878 5.54612 6.16639L6.61573 5.04019C9.68591 6.36948 13.4295 7.16335 17.4703 7.16335C21.511 7.16335 25.2547 6.36948 28.305 5.04019L29.3746 6.16639C28.1466 8.17878 27.4335 10.5789 27.4335 13.1636C27.4335 16.0437 28.3248 18.7207 29.8104 20.8623C26.661 26.1795 21.5903 26.8995 17.4703 28.8196ZM8.85399 22.8747L10.3594 22.4501C10.498 22.4132 10.6367 22.3393 10.7357 22.247C10.8347 22.1547 10.8744 22.0255 10.8744 21.8778V11.1881C10.8744 11.0404 10.8347 10.9112 10.7357 10.8189C10.6367 10.7266 10.5178 10.6527 10.3594 10.6158L8.85399 10.2096V9.54498H16.2422V10.2096L14.7566 10.6158C14.5982 10.6527 14.4793 10.7266 14.3803 10.8373C14.2813 10.9481 14.2218 11.0589 14.2218 11.2066V15.6744H20.7385V11.2066C20.7385 11.0589 20.6791 10.9481 20.5801 10.8373C20.481 10.745 20.3622 10.6712 20.2037 10.6343L18.7182 10.2281V9.56344H26.1064V10.2281L24.601 10.6343C24.4624 10.6712 24.3435 10.7266 24.2445 10.8373C24.1454 10.9481 24.086 11.0589 24.086 11.2066V21.8962C24.086 22.0439 24.1454 22.1732 24.2445 22.2655C24.3435 22.3578 24.4624 22.4316 24.601 22.4686L26.1064 22.8932V23.5394H18.7182V22.8932L20.2037 22.4686C20.3622 22.4316 20.481 22.3578 20.5801 22.2655C20.6791 22.1547 20.7385 22.0439 20.7385 21.8962V16.8745H14.2218V21.8962C14.2218 22.0439 14.2813 22.1732 14.3803 22.2655C14.4793 22.3578 14.618 22.4316 14.7566 22.4686L16.2422 22.8932V23.5394H8.85399V22.8747ZM17.4703 33.8044C12.6174 29.1334 3.58517 30.4258 0 19.9392C2.00057 18.4807 3.32767 15.9883 3.32767 13.1636C3.32767 10.4496 2.0996 8.03108 0.237691 6.5541L0.435767 4.78172L5.44709 0.129236L7.8438 0C9.94341 1.82776 13.5286 3.0832 17.5099 3.0832C21.4912 3.0832 25.0764 1.82776 27.176 0L29.5727 0.129236L34.584 4.78172L34.7821 6.5541C32.9004 8.03108 31.6723 10.4496 31.6723 13.1636C31.6723 15.9883 32.9994 18.4807 35 19.9392C31.395 30.4258 22.343 29.1334 17.4703 33.8044Z" fill="white"/>
</svg>
