<svg width="76" height="91" viewBox="0 0 76 91" fill="none" xmlns="http://www.w3.org/2000/svg">
<path fill-rule="evenodd" clip-rule="evenodd" d="M57.0751 23.887L59.0296 15.708H52.4402C45.6833 15.708 45.795 13.7473 40.2667 14.0274C34.6266 14.3075 32.4767 16.5483 32.4767 16.5483L30.5502 29.573C30.5502 29.573 34.8221 26.772 40.2667 27.3883C45.7113 28.0045 43.3659 29.573 49.5643 30.3013C51.6863 30.5534 53.4454 29.7971 54.618 29.0689L52.6915 38.1722L50.7649 47.2755C50.5695 47.2755 50.402 47.2755 50.2065 47.2755L43.338 47.9197L39.5966 40.8332C39.9037 40.8051 40.2108 40.7771 40.518 40.7211C43.8685 39.9928 46.0184 36.6876 45.2924 33.2984C44.5665 29.9372 41.2718 27.8084 37.9213 28.5367C34.5708 29.2369 32.4209 32.5701 33.1468 35.9314C33.426 37.1638 34.0403 38.2562 34.9058 39.0965L26.3062 41.1973C25.5244 41.3933 24.8543 41.9255 24.4913 42.6818L20.8337 50.3006C20.1636 51.6731 20.7499 53.2977 22.118 53.9699C23.4862 54.6142 25.1335 54.054 25.7757 52.6815L28.8749 46.2391L32.8676 45.2588L30.4664 54.6422L28.0931 61.2526L22.3135 58.9277C20.9733 58.3955 19.4097 59.0118 18.7954 60.3282L17.2598 63.7455C16.6176 65.118 17.2039 66.7426 18.6 67.3868C18.963 67.5549 19.3539 67.6389 19.7448 67.6389C20.7778 67.6389 21.783 67.0507 22.2297 66.0423L22.7044 65.0339L28.6795 67.4428C29.3775 67.7229 30.1593 67.6949 30.8294 67.3868C31.4995 67.0787 32.03 66.5185 32.2813 65.8182L34.1799 60.5803L38.2284 64.7538L40.9647 74.2773C41.2997 75.4537 42.3887 76.266 43.6172 76.266H45.7113C47.219 76.266 48.4475 75.0336 48.4475 73.521C48.4475 71.9804 47.219 70.748 45.7113 70.748H45.6833L43.31 62.569C43.1984 62.1209 42.9471 61.7287 42.6399 61.3926L36.3298 54.8942L37.8096 49.2082L39.3453 52.1492C39.8758 53.1296 40.9368 53.6898 42.0536 53.5778L49.5923 52.8775L49.3131 54.11L50.6253 54.3901L50.9883 52.7094C52.3564 52.4574 53.3337 51.1689 53.1941 49.7684C53.1103 48.9281 52.6636 48.2278 52.0493 47.7797L57.103 23.887L57.0751 23.887Z" fill="white"/>
</svg>
