<svg width="24" height="24" viewBox="0 0 24 24" fill="none" xmlns="http://www.w3.org/2000/svg">
<path fill-rule="evenodd" clip-rule="evenodd" d="M0 6C0 2.68629 2.68629 0 6 0H18C21.3137 0 24 2.68629 24 6V18C24 21.3137 21.3137 24 18 24H6C2.68629 24 0 21.3137 0 18V6ZM18 12C18 15.3137 15.3137 18 12 18C8.68629 18 6 15.3137 6 12C6 8.68629 8.68629 6 12 6C15.3137 6 18 8.68629 18 12ZM18.857 6.85704C17.9102 6.85704 17.1427 6.08953 17.1427 5.14275C17.1427 4.19598 17.9102 3.42847 18.857 3.42847C19.8038 3.42847 20.5713 4.19598 20.5713 5.14275C20.5713 6.08953 19.8038 6.85704 18.857 6.85704Z" fill="#fff"/>
</svg>
