<svg width="48" height="48" viewBox="0 0 100 100" fill="none" xmlns="http://www.w3.org/2000/svg">
<path fill-rule="evenodd" clip-rule="evenodd" d="M0 8C0 3.58172 3.58172 0 8 0H40C44.4183 0 48 3.58172 48 8V40C48 44.4183 44.4183 48 40 48H8C3.58172 48 0 44.4183 0 40V8ZM36 24.0004C36 30.6278 30.6274 36.0004 24 36.0004C17.3726 36.0004 12 30.6278 12 24.0004C12 17.373 17.3726 12.0004 24 12.0004C30.6274 12.0004 36 17.373 36 24.0004ZM37.714 13.7145C35.8205 13.7145 34.2854 12.1795 34.2854 10.2859C34.2854 8.39239 35.8205 6.85737 37.714 6.85737C39.6076 6.85737 41.1426 8.39239 41.1426 10.2859C41.1426 12.1795 39.6076 13.7145 37.714 13.7145Z" fill="#B99579"/>
</svg>
