<svg width="48" height="48" viewBox="0 0 48 48" fill="none" xmlns="http://www.w3.org/2000/svg">
<path fill-rule="evenodd" clip-rule="evenodd" d="M0 6C0 2.68629 2.68629 0 6 0H42C45.3137 0 48 2.68629 48 6V42C48 45.3137 45.3137 48 42 48H6C2.68629 48 0 45.3137 0 42V6ZM36 24C36 30.6274 30.6274 36 24 36C17.3726 36 12 30.6274 12 24C12 17.3726 17.3726 12 24 12C30.6274 12 36 17.3726 36 24ZM37.7143 13.7143C35.8207 13.7143 34.2857 12.1793 34.2857 10.2857C34.2857 8.39217 35.8207 6.85714 37.7143 6.85714C39.6078 6.85714 41.1429 8.39217 41.1429 10.2857C41.1429 12.1793 39.6078 13.7143 37.7143 13.7143Z" fill="white"/>
</svg>
