<svg width="240" height="27" viewBox="0 0 240 27" fill="none" xmlns="http://www.w3.org/2000/svg">
<path d="M145.385 11.2607V20.6822H143.318V19.2143H143.004C141.825 20.384 140.237 21.0339 138.587 21.0226C135.212 21.0226 133.629 19.2143 133.629 16.8313C133.629 14.1786 135.33 12.5517 138.469 12.5517H143.314V11.3756C143.314 9.73538 142.35 8.50188 139.917 8.50188C137.676 8.50188 136.516 9.53643 136.315 11.1546H134.191C134.475 8.28525 136.629 6.44605 140 6.44605C143.371 6.44605 145.385 7.95808 145.385 11.2607ZM143.318 16.7208V14.3643H138.556C136.69 14.3643 135.783 15.222 135.783 16.7208C135.783 18.3876 137.061 19.1348 138.87 19.1348C139.75 19.1323 140.616 18.911 141.391 18.4901C142.167 18.0692 142.829 17.4616 143.318 16.7208ZM147.54 13.7586C147.54 9.56738 150.234 6.49468 154.281 6.49468C157.482 6.49468 159.745 8.39135 160.286 11.2607H158.219C157.783 9.68233 156.475 8.5063 154.294 8.5063C151.578 8.5063 149.62 10.4605 149.62 13.7631C149.607 17.2425 151.752 19.011 154.281 19.011C156.462 19.011 157.77 17.8349 158.206 16.2566H160.251C159.71 19.1303 157.447 21.027 154.246 21.027C150.234 21.027 147.54 17.9499 147.54 13.7586ZM173.726 11.2607V20.6822H171.654V19.2143H171.345C170.163 20.3839 168.574 21.0336 166.923 21.0226C163.552 21.0226 161.965 19.2143 161.965 16.8313C161.965 14.1786 163.665 12.5517 166.809 12.5517H171.65V11.3756C171.65 9.73538 170.686 8.50188 168.253 8.50188C166.011 8.50188 164.852 9.53643 164.655 11.1546H162.527C162.811 8.28525 164.965 6.44605 168.336 6.44605C171.707 6.44605 173.726 7.95808 173.726 11.2607ZM171.654 16.7208V14.3643H166.897C165.026 14.3643 164.119 15.222 164.119 16.7208C164.119 18.3876 165.397 19.1348 167.206 19.1348C168.086 19.1323 168.952 18.911 169.727 18.4901C170.503 18.0692 171.164 17.4616 171.654 16.7208ZM175.88 13.7896C175.88 8.67873 179.251 6.49468 182.364 6.49468C183.271 6.47095 184.172 6.65778 184.998 7.0409C185.823 7.42402 186.551 7.9933 187.126 8.70526V0H189.193V20.6822H187.126V18.6971H186.781C186.246 19.4409 185.541 20.0433 184.728 20.4534C183.914 20.8635 183.015 21.0693 182.107 21.0535C179.224 21.027 175.88 18.843 175.88 13.7896ZM187.126 13.7896C187.126 10.1687 184.885 8.55936 182.591 8.55936C180.297 8.55936 177.947 10.1377 177.947 13.7896C177.947 17.4415 180.328 19.011 182.591 19.011C184.854 19.011 187.126 17.3751 187.126 13.7542V13.7896ZM191.378 13.8161C191.378 9.6956 193.841 6.49468 198.036 6.49468C201.835 6.49468 204.355 9.14737 204.355 12.7816V14.3864H193.453C193.68 17.4813 195.494 19.0154 198.041 19.0154C200.365 19.0154 201.468 17.8394 202.035 16.3627H204.133C203.426 19.148 201.329 21.0756 198.028 21.0756C193.903 21.027 191.378 17.9499 191.378 13.8161ZM202.279 12.5826C202.279 10.4251 200.893 8.45767 198.032 8.45767C196.897 8.40692 195.787 8.81116 194.944 9.58303C194.1 10.3549 193.59 11.4324 193.523 12.5826H202.279ZM206.566 6.83511H208.633V8.60357H208.947C209.344 7.92823 209.914 7.37443 210.597 7.00084C211.279 6.62724 212.049 6.44776 212.824 6.48141C213.603 6.43779 214.376 6.63345 215.044 7.04283C215.711 7.4522 216.242 8.05625 216.565 8.776H216.879C217.529 7.51154 219.09 6.48141 221.187 6.48141C223.961 6.48141 225.775 8.31619 225.775 11.5083V20.6822H223.704V11.9371C223.704 9.72654 222.544 8.60799 220.699 8.60799C218.379 8.60799 217.21 10.3765 217.21 12.6887V20.6822H215.143V11.9371C215.143 9.72654 213.984 8.60799 212.143 8.60799C209.88 8.60799 208.655 10.3765 208.655 12.6887V20.6822H206.588L206.566 6.83511ZM232.207 18.896L226.656 6.83511H229.011L232.778 15.1955L233.171 16.1151H233.485C233.624 15.7658 233.742 15.4519 233.851 15.1955L237.68 6.83511H239.999L230.842 27H228.492L232.207 18.896Z" fill="white"/>
<path d="M55.4376 13.7055C55.4376 18.4449 52.5857 20.6865 49.0143 20.6865H46.834V17.8392H48.8399C50.9941 17.8392 52.4287 16.6588 52.4287 13.7187C52.4287 10.7786 51.1205 9.29756 48.7745 9.29756C46.4284 9.29756 44.985 10.677 44.985 13.6391V25.5365H42.0154V6.83498H44.9894V8.44428H45.4254C45.8869 7.81676 46.49 7.31059 47.1843 6.96826C47.8786 6.62593 48.6437 6.45742 49.4155 6.47686C52.6904 6.47686 55.4376 8.9085 55.4376 13.7055ZM35.8842 12.4675L33.9001 12.2686C32.3433 12.1271 31.5192 11.6806 31.5192 10.7742C31.5192 9.6822 32.5701 9.04998 34.0658 9.04998C35.5615 9.04998 36.6168 9.79715 36.6822 10.8538H39.5429C39.4295 8.15248 37.3625 6.48571 34.0745 6.48571C30.7866 6.48571 28.5234 8.25417 28.5234 10.9069C28.5234 13.0909 29.8839 14.4968 32.9713 14.8152L34.9816 15.0185C36.1982 15.1335 37.018 15.3855 37.018 16.5659C37.018 17.6314 36.2505 18.4007 34.2446 18.4007C32.3913 18.4007 31.4799 17.5474 31.1616 16.4068H28.0655C28.3707 19.0197 30.538 21.0446 34.249 21.0446C37.7375 21.0446 40.0051 19.1788 40.0051 16.4156C40.0182 13.9575 38.4352 12.7284 35.8842 12.4675ZM66.963 16.3891C66.6822 16.9904 66.2311 17.4933 65.6673 17.8335C65.1034 18.1737 64.4523 18.3357 63.7971 18.299C61.6167 18.299 59.9989 16.8622 59.9989 13.7585C59.9989 10.814 61.5034 9.1605 63.8276 9.1605C65.8946 9.1605 67.0851 10.425 67.2028 12.3216H61.8391V14.5057H70.1245V13.0688C70.1245 9.08977 67.508 6.49455 63.8058 6.49455C60.3172 6.49455 57.038 8.87755 57.038 13.7629C57.038 18.6483 60.3521 21.0357 63.8058 21.0357C65.1922 21.0802 66.5522 20.6447 67.6619 19.8009C68.7715 18.9571 69.5647 17.7554 69.9108 16.3935L66.963 16.3891ZM20.1857 6.47686C16.9283 6.47686 14.5168 8.24533 14.2072 10.8538H17.4428C17.6696 9.87673 18.5461 9.1605 20.2162 9.1605C22.3704 9.1605 23.0812 10.3365 23.0812 11.7159V16.4819C22.5924 17.1119 21.9731 17.6253 21.267 17.9859C20.561 18.3465 19.7855 18.5454 18.9952 18.5687C17.5169 18.5687 16.5009 17.8481 16.5009 16.5527C16.5009 15.2573 17.2989 14.5411 18.8252 14.5411H21.2061V12.3305H18.751C15.3497 12.3305 13.4571 14.0547 13.4571 16.6986C13.4571 19.17 15.2973 21.0357 18.328 21.0357C19.895 21.0129 21.4131 20.4796 22.6582 19.5149H23.0943V20.6909H26.0683V11.433C26.0203 8.011 23.7266 6.47686 20.1857 6.47686ZM0 20.682H2.974V1.72412H0V20.682ZM12.4978 6.83498H8.86531L4.53513 12.609V14.4173L8.98305 20.682H12.646L7.4132 13.4977L12.4978 6.83498ZM119.919 6.83498L117.482 12.3216C116.929 13.4337 116.483 14.5975 116.152 15.7967H115.716C115.378 14.6186 114.934 13.4746 114.39 12.3791L111.952 6.86592H108.643L114.39 19.2761L111.56 25.5365H114.734L123.233 6.83498H119.919ZM107.988 6.83498H104.356L100.021 12.609V14.4173L104.469 20.682H108.145L102.913 13.4977L107.988 6.83498ZM89.3595 12.4631L87.371 12.2642C85.8186 12.1227 84.9901 11.6761 84.9901 10.7654C84.9901 9.67778 86.0454 9.04113 87.5411 9.04113C89.0368 9.04113 90.0921 9.78831 90.1793 10.8494H93.04C92.9222 8.14806 90.8596 6.48128 87.5716 6.48128C84.2837 6.48128 82.0205 8.24975 82.0205 10.9024C82.0205 13.0865 83.3766 14.4924 86.4684 14.8107L88.4743 15.0097C89.6953 15.1291 90.5151 15.3811 90.5151 16.5571C90.5151 17.6226 89.7476 18.3963 87.7374 18.3963C85.8884 18.3963 84.9727 17.543 84.6543 16.3979H81.5452C81.8504 19.0153 84.0177 21.0401 87.7286 21.0401C91.2172 21.0401 93.4804 19.1744 93.4804 16.4112C93.4804 13.9796 91.8887 12.7505 89.3421 12.4896L89.3595 12.4631ZM95.4994 20.7041H98.4734V1.72412H95.4994V20.7041ZM75.8762 8.4487H75.4402V6.83498H72.4618V20.682H75.4402V13.4446C75.4402 10.9732 76.5652 9.5363 78.7848 9.5363H80.673V6.47686H79.5828C77.5246 6.47686 76.6481 7.27709 75.8762 8.4487Z" fill="white"/>
<path d="M126.648 16.4819C127.241 16.4772 127.812 16.7109 128.235 17.1318C128.659 17.5528 128.9 18.1267 128.907 18.7278V18.7544C128.908 19.052 128.85 19.3468 128.739 19.622C128.627 19.8971 128.462 20.1472 128.255 20.3578C128.047 20.5685 127.801 20.7356 127.53 20.8497C127.259 20.9637 126.968 21.0224 126.675 21.0224C126.081 21.0224 125.512 20.7835 125.093 20.3581C124.673 19.9328 124.438 19.3559 124.438 18.7544C124.436 18.1566 124.668 17.5826 125.082 17.1571C125.496 16.7315 126.059 16.4889 126.648 16.4819Z" fill="#009982"/>
</svg>
