<svg width="328" height="328" viewBox="0 0 328 328" fill="none" xmlns="http://www.w3.org/2000/svg">
  <ellipse cx="163.804" cy="149.836" rx="69.3488" ry="69.8361" fill="url(#paint0_linear)"/>
  <g filter="url(#filter0_f)">
    <circle cx="164" cy="164" r="84" fill="url(#paint1_linear)"/>
    <circle cx="164" cy="164" r="83.5" stroke="white"/>
  </g>
  <mask id="mask0" mask-type="alpha" maskUnits="userSpaceOnUse" x="94" y="80" width="140" height="140">
    <ellipse cx="163.804" cy="149.836" rx="69.3488" ry="69.8361" fill="url(#paint2_linear)"/>
  </mask>
  <g mask="url(#mask0)">
    <g filter="url(#filter1_f)">
      <circle cx="164" cy="164" r="84" fill="url(#paint3_linear)"/>
      <circle cx="164" cy="164" r="83.5" stroke="white"/>
    </g>
  </g>
  <path d="M36.04 173.688H47.656L58.696 192.024C60.232 194.616 62.92 195.96 65.8 195.96C70.408 195.96 74.344 191.928 74.344 187.416C74.344 185.976 73.96 184.632 73.192 183.384L64.552 169.656C65.416 169.08 66.28 168.408 67.144 167.64C72.232 163.032 74.344 157.272 74.344 151.512C74.344 144.6 71.656 138.168 66.76 134.328C62.44 130.968 56.392 129.624 49.96 129.624H27.592C22.888 129.624 19.144 133.272 19.144 137.88V187.8C19.144 192.312 22.888 195.96 27.592 195.96C32.104 195.96 36.04 192.312 36.04 187.8V173.688ZM48.808 143.928C50.824 143.928 52.936 144.408 54.472 145.56C56.2 146.808 57.16 148.824 57.16 151.704C57.16 154.68 56.008 156.792 54.184 158.04C52.648 159 50.632 159.48 48.616 159.48H36.04V143.928H48.808ZM80.4318 175.704C80.4318 181.464 81.9678 185.88 84.6558 189.048C88.6878 193.848 95.2158 195.96 103.088 195.96C110.96 195.96 117.488 193.848 121.52 189.048C124.208 185.88 125.744 181.464 125.744 175.704V157.368C125.744 153.24 122.288 149.88 117.968 149.88C113.648 149.88 110.192 153.24 110.192 157.368V175.224C110.192 176.952 109.904 178.584 109.232 179.928C108.176 181.944 106.256 183.288 103.088 183.288C99.9198 183.288 97.9998 181.944 96.9438 179.928C96.2718 178.584 95.9838 176.952 95.9838 175.224V157.368C95.9838 153.24 92.5278 149.88 88.2078 149.88C83.8878 149.88 80.4318 153.24 80.4318 157.368V175.704ZM190.364 138.36C190.364 134.616 187.868 132.12 184.22 130.872C179.996 129.432 175.772 128.76 169.916 128.76C150.908 128.76 134.396 142.872 134.396 162.264C134.396 183 149.18 195.96 169.724 195.96C175.58 195.96 180.86 195 185.18 193.464C188.54 192.216 191.516 189.624 191.516 185.88C191.516 181.368 187.964 178.008 183.644 178.008C181.628 178.008 179.516 178.968 176.444 179.736C174.62 180.216 172.316 180.6 169.532 180.6C159.452 180.6 152.06 172.92 152.06 162.264C152.06 151.512 160.028 143.928 169.532 143.928C172.412 143.928 174.428 144.216 176.156 144.696C178.844 145.368 180.476 146.232 182.492 146.232C186.812 146.232 190.364 142.968 190.364 138.36ZM246.903 144.6C250.935 144.6 254.199 141.24 254.199 137.112C254.199 133.08 250.935 129.624 246.903 129.624H202.359C198.327 129.624 195.062 133.08 195.062 137.112C195.062 141.24 198.327 144.6 202.359 144.6H216.183V187.8C216.183 192.312 220.023 195.96 224.631 195.96C229.143 195.96 233.079 192.312 233.079 187.8V144.6H246.903ZM268.811 129.624C264.203 129.624 260.363 133.272 260.363 137.784V187.8C260.363 192.312 264.203 195.96 268.811 195.96C273.323 195.96 277.259 192.312 277.259 187.8V169.56H298.571C302.603 169.56 305.867 166.2 305.867 162.072C305.867 158.04 302.603 154.584 298.571 154.584H277.259V144.6H302.699C306.731 144.6 309.995 141.24 309.995 137.112C309.995 133.08 306.731 129.624 302.699 129.624H268.811Z" fill="white"/>
  <path fill-rule="evenodd" clip-rule="evenodd" d="M88 131C83.5817 131 80 134.582 80 139C80 143.418 83.5817 147 88 147H118C122.418 147 126 143.418 126 139C126 134.582 122.418 131 118 131H88ZM92.3868 140.278C92.1228 140.482 92.0148 140.71 92.0148 141.022H94.6668C95.1588 141.022 95.5548 141.442 95.5548 141.934C95.5548 142.438 95.1588 142.846 94.6668 142.846H90.6228C90.1308 142.846 89.7468 142.498 89.7468 141.898C89.7468 140.722 90.0228 139.954 90.7068 139.294C91.1615 138.859 91.6689 138.599 92.1377 138.359C92.535 138.156 92.9045 137.967 93.1908 137.698C93.3828 137.506 93.4788 137.29 93.4788 137.014C93.4788 136.87 93.4548 136.666 93.2628 136.498C93.1308 136.378 92.9388 136.318 92.6268 136.318C92.2548 136.318 91.9788 136.438 91.7388 136.582C91.662 136.626 91.5889 136.672 91.5173 136.717C91.2758 136.871 91.051 137.014 90.7548 137.014C90.2388 137.014 89.8428 136.678 89.8428 136.102C89.8428 135.562 90.2988 135.202 90.8868 134.938C91.5228 134.65 92.0748 134.566 92.8068 134.566C93.6708 134.566 94.3908 134.878 94.8588 135.382C95.2428 135.79 95.4588 136.342 95.4588 136.954C95.4588 137.686 95.1948 138.31 94.7028 138.802C94.2322 139.272 93.7278 139.527 93.2624 139.762C92.9446 139.922 92.6449 140.073 92.3868 140.278ZM99.8461 134.554C101.874 134.554 102.978 135.994 102.978 138.766C102.978 141.526 101.874 142.966 99.8461 142.966C97.8181 142.966 96.7141 141.526 96.7141 138.766C96.7141 135.994 97.8181 134.554 99.8461 134.554ZM100.602 140.542C100.794 140.158 100.878 139.57 100.878 138.766C100.878 137.974 100.794 137.374 100.602 136.99C100.434 136.654 100.194 136.486 99.8461 136.486C99.5221 136.486 99.2701 136.666 99.1021 136.99C98.8981 137.374 98.7901 137.986 98.7901 138.766C98.7901 139.558 98.8861 140.158 99.0901 140.542C99.2581 140.866 99.4981 141.034 99.8461 141.034C100.182 141.034 100.434 140.866 100.602 140.542ZM106.777 140.278C106.513 140.482 106.405 140.71 106.405 141.022H109.057C109.549 141.022 109.945 141.442 109.945 141.934C109.945 142.438 109.549 142.846 109.057 142.846H105.013C104.521 142.846 104.137 142.498 104.137 141.898C104.137 140.722 104.413 139.954 105.097 139.294C105.552 138.859 106.06 138.599 106.528 138.359C106.926 138.156 107.295 137.967 107.581 137.698C107.773 137.506 107.869 137.29 107.869 137.014C107.869 136.87 107.845 136.666 107.653 136.498C107.521 136.378 107.329 136.318 107.017 136.318C106.645 136.318 106.369 136.438 106.129 136.582C106.053 136.626 105.98 136.672 105.908 136.717C105.666 136.871 105.442 137.014 105.145 137.014C104.629 137.014 104.233 136.678 104.233 136.102C104.233 135.562 104.689 135.202 105.277 134.938C105.913 134.65 106.465 134.566 107.197 134.566C108.061 134.566 108.781 134.878 109.249 135.382C109.633 135.79 109.849 136.342 109.849 136.954C109.849 137.686 109.585 138.31 109.093 138.802C108.623 139.272 108.118 139.527 107.653 139.762C107.335 139.922 107.036 140.073 106.777 140.278ZM115.593 135.586V141.022H116.757C117.249 141.022 117.633 141.454 117.633 141.934C117.633 142.438 117.249 142.846 116.757 142.846H112.185C111.693 142.846 111.297 142.438 111.297 141.934C111.297 141.454 111.693 141.022 112.185 141.022H113.481V136.774L112.449 137.11C112.365 137.134 112.269 137.146 112.185 137.146C111.717 137.146 111.273 136.834 111.273 136.234C111.273 135.838 111.513 135.49 111.873 135.37L114.033 134.674C114.177 134.626 114.393 134.566 114.681 134.566C115.329 134.566 115.593 135.034 115.593 135.586Z" fill="#B99579"/>
  <defs>
    <filter id="filter0_f" x="0" y="0" width="328" height="328" filterUnits="userSpaceOnUse" color-interpolation-filters="sRGB">
      <feFlood flood-opacity="0" result="BackgroundImageFix"/>
      <feBlend mode="normal" in="SourceGraphic" in2="BackgroundImageFix" result="shape"/>
      <feGaussianBlur stdDeviation="40" result="effect1_foregroundBlur"/>
    </filter>
    <filter id="filter1_f" x="-70" y="-70" width="468" height="468" filterUnits="userSpaceOnUse" color-interpolation-filters="sRGB">
      <feFlood flood-opacity="0" result="BackgroundImageFix"/>
      <feBlend mode="normal" in="SourceGraphic" in2="BackgroundImageFix" result="shape"/>
      <feGaussianBlur stdDeviation="75" result="effect1_foregroundBlur"/>
    </filter>
    <linearGradient id="paint0_linear" x1="163.804" y1="80" x2="164.002" y2="147.082" gradientUnits="userSpaceOnUse">
      <stop stop-color="#BD0000"/>
      <stop offset="1" stop-color="#BD0000" stop-opacity="0"/>
    </linearGradient>
    <linearGradient id="paint1_linear" x1="164" y1="80" x2="164" y2="209.141" gradientUnits="userSpaceOnUse">
      <stop stop-color="#BD0000"/>
      <stop offset="1" stop-color="#BD0000" stop-opacity="0"/>
    </linearGradient>
    <linearGradient id="paint2_linear" x1="163.804" y1="80" x2="164.002" y2="147.082" gradientUnits="userSpaceOnUse">
      <stop stop-color="#BD0000"/>
      <stop offset="1" stop-color="#BD0000" stop-opacity="0"/>
    </linearGradient>
    <linearGradient id="paint3_linear" x1="164" y1="80" x2="164" y2="209.141" gradientUnits="userSpaceOnUse">
      <stop stop-color="#870000"/>
      <stop offset="1" stop-color="#870000" stop-opacity="0"/>
    </linearGradient>
  </defs>
</svg>
