<svg width="926" height="678" viewBox="0 0 926 678" fill="none" xmlns="http://www.w3.org/2000/svg">
  <circle cx="413.5" cy="278.5" r="177.5" fill="url(#paint0_linear)"/>
  <g filter="url(#filter0_f)">
    <ellipse cx="414" cy="314.5" rx="215" ry="213.5" fill="url(#paint1_linear)"/>
    <path d="M628.5 314.5C628.5 432.133 532.468 527.5 414 527.5C295.532 527.5 199.5 432.133 199.5 314.5C199.5 196.867 295.532 101.5 414 101.5C532.468 101.5 628.5 196.867 628.5 314.5Z" stroke="white"/>
  </g>
  <mask id="mask0" mask-type="alpha" maskUnits="userSpaceOnUse" x="236" y="101" width="355" height="355">
    <circle cx="413.5" cy="278.5" r="177.5" fill="url(#paint2_linear)"/>
  </mask>
  <g mask="url(#mask0)">
    <g filter="url(#filter1_f)">
      <ellipse cx="414" cy="314.5" rx="215" ry="213.5" fill="url(#paint3_linear)"/>
      <path d="M628.5 314.5C628.5 432.133 532.468 527.5 414 527.5C295.532 527.5 199.5 432.133 199.5 314.5C199.5 196.867 295.532 101.5 414 101.5C532.468 101.5 628.5 196.867 628.5 314.5Z" stroke="white"/>
    </g>
  </g>
  <path fill-rule="evenodd" clip-rule="evenodd" d="M915.955 151.812L926 109.778H892.136C857.411 109.778 857.985 99.7012 829.573 101.141C800.588 102.58 789.539 114.096 789.539 114.096L779.638 181.034C779.638 181.034 801.592 166.639 829.573 169.805C857.554 172.972 845.501 181.034 877.356 184.776C888.261 186.072 897.301 182.185 903.328 178.443L883.526 272.011C882.522 272.011 881.661 272.011 880.656 272.011L845.357 275.322L826.129 238.902C827.708 238.758 829.286 238.614 830.864 238.326C848.084 234.583 859.132 217.597 855.402 200.179C851.671 182.905 834.739 171.965 817.52 175.707C800.3 179.306 789.252 196.436 792.982 213.711C794.417 220.044 797.574 225.659 802.022 229.977L757.827 240.773C753.809 241.781 750.365 244.516 748.5 248.403L729.702 287.557C726.258 294.611 729.272 302.96 736.303 306.415C743.334 309.726 751.8 306.847 755.1 299.793L771.028 266.685L791.547 261.646L779.207 309.87L767.01 343.842L737.307 331.894C730.42 329.159 722.384 332.326 719.227 339.092L711.335 356.654C708.035 363.708 711.048 372.057 718.223 375.368C720.088 376.231 722.097 376.663 724.106 376.663C729.415 376.663 734.581 373.64 736.877 368.458L739.316 363.276L770.024 375.656C773.611 377.095 777.629 376.951 781.073 375.368C784.516 373.784 787.243 370.905 788.534 367.306L798.292 340.387L819.098 361.836L833.16 410.779C834.882 416.825 840.478 421 846.792 421H857.554C865.303 421 871.616 414.666 871.616 406.893C871.616 398.975 865.303 392.642 857.554 392.642H857.41L845.214 350.608C844.64 348.305 843.348 346.289 841.77 344.562L809.34 311.165L816.946 281.943L824.838 297.058C827.564 302.096 833.017 304.975 838.756 304.4L877.499 300.801L876.065 307.135L882.809 308.574L884.674 299.937C891.705 298.642 896.727 292.02 896.01 284.822C895.579 280.504 893.284 276.905 890.127 274.602L916.099 151.811H915.955L915.955 151.812Z" fill="white"/>
  <path d="M51.84 312.048H77.976L102.816 353.304C106.272 359.136 112.32 362.16 118.8 362.16C129.168 362.16 138.024 353.088 138.024 342.936C138.024 339.696 137.16 336.672 135.432 333.864L115.992 302.976C117.936 301.68 119.88 300.168 121.824 298.44C133.272 288.072 138.024 275.112 138.024 262.152C138.024 246.6 131.976 232.128 120.96 223.488C111.24 215.928 97.632 212.904 83.16 212.904H32.832C22.248 212.904 13.824 221.112 13.824 231.48V343.8C13.824 353.952 22.248 362.16 32.832 362.16C42.984 362.16 51.84 353.952 51.84 343.8V312.048ZM80.568 245.088C85.104 245.088 89.856 246.168 93.312 248.76C97.2 251.568 99.36 256.104 99.36 262.584C99.36 269.28 96.768 274.032 92.664 276.84C89.208 279 84.672 280.08 80.136 280.08H51.84V245.088H80.568ZM151.721 316.584C151.721 329.544 155.177 339.48 161.225 346.608C170.297 357.408 184.985 362.16 202.697 362.16C220.409 362.16 235.097 357.408 244.169 346.608C250.217 339.48 253.673 329.544 253.673 316.584V275.328C253.673 266.04 245.897 258.48 236.177 258.48C226.457 258.48 218.681 266.04 218.681 275.328V315.504C218.681 319.392 218.033 323.064 216.521 326.088C214.145 330.624 209.825 333.648 202.697 333.648C195.569 333.648 191.249 330.624 188.873 326.088C187.361 323.064 186.713 319.392 186.713 315.504V275.328C186.713 266.04 178.937 258.48 169.217 258.48C159.497 258.48 151.721 266.04 151.721 275.328V316.584ZM399.068 232.56C399.068 224.136 393.452 218.52 385.244 215.712C375.74 212.472 366.236 210.96 353.06 210.96C310.292 210.96 273.14 242.712 273.14 286.344C273.14 333 306.404 362.16 352.628 362.16C365.804 362.16 377.684 360 387.404 356.544C394.964 353.736 401.66 347.904 401.66 339.48C401.66 329.328 393.668 321.768 383.948 321.768C379.412 321.768 374.66 323.928 367.748 325.656C363.644 326.736 358.46 327.6 352.196 327.6C329.516 327.6 312.884 310.32 312.884 286.344C312.884 262.152 330.812 245.088 352.196 245.088C358.676 245.088 363.212 245.736 367.1 246.816C373.148 248.328 376.82 250.272 381.356 250.272C391.076 250.272 399.068 242.928 399.068 232.56ZM526.281 246.6C535.353 246.6 542.697 239.04 542.697 229.752C542.697 220.68 535.353 212.904 526.281 212.904H426.057C416.985 212.904 409.641 220.68 409.641 229.752C409.641 239.04 416.985 246.6 426.057 246.6H457.161V343.8C457.161 353.952 465.801 362.16 476.169 362.16C486.321 362.16 495.177 353.952 495.177 343.8V246.6H526.281ZM575.574 212.904C565.206 212.904 556.566 221.112 556.566 231.264V343.8C556.566 353.952 565.206 362.16 575.574 362.16C585.726 362.16 594.582 353.952 594.582 343.8V302.76H642.534C651.606 302.76 658.95 295.2 658.95 285.912C658.95 276.84 651.606 269.064 642.534 269.064H594.582V246.6H651.822C660.894 246.6 668.238 239.04 668.238 229.752C668.238 220.68 660.894 212.904 651.822 212.904H575.574Z" fill="white"/>
  <path fill-rule="evenodd" clip-rule="evenodd" d="M163 226C155.82 226 150 231.82 150 239C150 246.18 155.82 252 163 252H241C248.18 252 254 246.18 254 239C254 231.82 248.18 226 241 226H163ZM181.084 240.927C180.556 241.335 180.34 241.791 180.34 242.415H185.644C186.628 242.415 187.42 243.255 187.42 244.239C187.42 245.247 186.628 246.063 185.644 246.063H177.556C176.572 246.063 175.804 245.367 175.804 244.167C175.804 241.815 176.356 240.279 177.724 238.959C178.633 238.089 179.648 237.57 180.586 237.091C181.38 236.685 182.119 236.307 182.692 235.767C183.076 235.383 183.268 234.951 183.268 234.399C183.268 234.111 183.22 233.703 182.836 233.367C182.572 233.127 182.188 233.007 181.564 233.007C180.82 233.007 180.268 233.247 179.788 233.535C179.634 233.623 179.488 233.716 179.345 233.807C178.862 234.114 178.412 234.399 177.82 234.399C176.788 234.399 175.996 233.727 175.996 232.575C175.996 231.495 176.908 230.775 178.084 230.247C179.356 229.671 180.46 229.503 181.924 229.503C183.652 229.503 185.092 230.127 186.028 231.135C186.796 231.951 187.228 233.055 187.228 234.279C187.228 235.743 186.7 236.991 185.716 237.975C184.775 238.916 183.766 239.425 182.835 239.895C182.199 240.216 181.6 240.518 181.084 240.927ZM196.002 229.479C200.058 229.479 202.266 232.359 202.266 237.903C202.266 243.423 200.058 246.303 196.002 246.303C191.946 246.303 189.738 243.423 189.738 237.903C189.738 232.359 191.946 229.479 196.002 229.479ZM197.514 241.455C197.898 240.687 198.066 239.511 198.066 237.903C198.066 236.319 197.898 235.119 197.514 234.351C197.178 233.679 196.698 233.343 196.002 233.343C195.354 233.343 194.85 233.703 194.514 234.351C194.106 235.119 193.89 236.343 193.89 237.903C193.89 239.487 194.082 240.687 194.49 241.455C194.826 242.103 195.306 242.439 196.002 242.439C196.674 242.439 197.178 242.103 197.514 241.455ZM209.865 240.927C209.337 241.335 209.121 241.791 209.121 242.415H214.425C215.409 242.415 216.201 243.255 216.201 244.239C216.201 245.247 215.409 246.063 214.425 246.063H206.337C205.353 246.063 204.585 245.367 204.585 244.167C204.585 241.815 205.137 240.279 206.505 238.959C207.414 238.089 208.429 237.57 209.367 237.091C210.162 236.685 210.901 236.307 211.473 235.767C211.857 235.383 212.049 234.951 212.049 234.399C212.049 234.111 212.001 233.703 211.617 233.367C211.353 233.127 210.969 233.007 210.345 233.007C209.601 233.007 209.049 233.247 208.569 233.535C208.415 233.623 208.269 233.716 208.126 233.807C207.643 234.114 207.194 234.399 206.601 234.399C205.569 234.399 204.777 233.727 204.777 232.575C204.777 231.495 205.689 230.775 206.865 230.247C208.137 229.671 209.241 229.503 210.705 229.503C212.433 229.503 213.873 230.127 214.809 231.135C215.577 231.951 216.009 233.055 216.009 234.279C216.009 235.743 215.481 236.991 214.497 237.975C213.556 238.916 212.547 239.425 211.616 239.895C210.981 240.216 210.381 240.518 209.865 240.927ZM227.496 231.543V242.415H229.824C230.808 242.415 231.576 243.279 231.576 244.239C231.576 245.247 230.808 246.063 229.824 246.063H220.68C219.696 246.063 218.904 245.247 218.904 244.239C218.904 243.279 219.696 242.415 220.68 242.415H223.272V233.919L221.208 234.591C221.04 234.639 220.848 234.663 220.68 234.663C219.744 234.663 218.856 234.039 218.856 232.839C218.856 232.047 219.336 231.351 220.056 231.111L224.376 229.719C224.664 229.623 225.096 229.503 225.672 229.503C226.968 229.503 227.496 230.439 227.496 231.543Z" fill="#B99579"/>
  <defs>
    <filter id="filter0_f" x="49" y="-49" width="730" height="727" filterUnits="userSpaceOnUse" color-interpolation-filters="sRGB">
      <feFlood flood-opacity="0" result="BackgroundImageFix"/>
      <feBlend mode="normal" in="SourceGraphic" in2="BackgroundImageFix" result="shape"/>
      <feGaussianBlur stdDeviation="75" result="effect1_foregroundBlur"/>
    </filter>
    <filter id="filter1_f" x="49" y="-49" width="730" height="727" filterUnits="userSpaceOnUse" color-interpolation-filters="sRGB">
      <feFlood flood-opacity="0" result="BackgroundImageFix"/>
      <feBlend mode="normal" in="SourceGraphic" in2="BackgroundImageFix" result="shape"/>
      <feGaussianBlur stdDeviation="75" result="effect1_foregroundBlur"/>
    </filter>
    <linearGradient id="paint0_linear" x1="413.5" y1="101" x2="414" y2="271.5" gradientUnits="userSpaceOnUse">
      <stop stop-color="#BD0000"/>
      <stop offset="1" stop-color="#BD0000" stop-opacity="0"/>
    </linearGradient>
    <linearGradient id="paint1_linear" x1="414" y1="101" x2="414" y2="429.234" gradientUnits="userSpaceOnUse">
      <stop stop-color="#BD0000"/>
      <stop offset="1" stop-color="#BD0000" stop-opacity="0"/>
    </linearGradient>
    <linearGradient id="paint2_linear" x1="413.5" y1="101" x2="414" y2="271.5" gradientUnits="userSpaceOnUse">
      <stop stop-color="#BD0000"/>
      <stop offset="1" stop-color="#BD0000" stop-opacity="0"/>
    </linearGradient>
    <linearGradient id="paint3_linear" x1="414" y1="101" x2="414" y2="429.234" gradientUnits="userSpaceOnUse">
      <stop stop-color="#870000"/>
      <stop offset="1" stop-color="#870000" stop-opacity="0"/>
    </linearGradient>
  </defs>
</svg>
