<svg width="31" height="46" viewBox="0 0 31 46" fill="none" xmlns="http://www.w3.org/2000/svg">
<path fill-rule="evenodd" clip-rule="evenodd" d="M29.5584 7.30416L31 1.26182H26.1398C21.1561 1.26182 21.2385 -0.186696 17.1609 0.0202329C13.001 0.227162 11.4153 1.8826 11.4153 1.8826L9.99428 11.5048C9.99428 11.5048 13.1451 9.43554 17.1609 9.89078C21.1767 10.346 19.4469 11.5048 24.0187 12.0429C25.5838 12.2291 26.8812 11.6704 27.7462 11.1324L24.9042 24.5828C24.7601 24.5828 24.6365 24.5828 24.4924 24.5828L19.4263 25.0587L16.6667 19.8234C16.8932 19.8027 17.1198 19.782 17.3463 19.7406C19.8175 19.2026 21.4033 16.7609 20.8678 14.257C20.3324 11.7738 17.9023 10.2012 15.4311 10.7392C12.9598 11.2565 11.3741 13.719 11.9095 16.2021C12.1154 17.1126 12.5685 17.9197 13.2069 18.5405L6.86402 20.0924C6.28739 20.2373 5.79314 20.6304 5.52542 21.1891L2.82763 26.8176C2.33338 27.8316 2.76584 29.0318 3.77494 29.5284C4.78404 30.0044 5.99908 29.5905 6.47274 28.5765L8.75865 23.8172L11.7036 23.0929L9.9325 30.025L8.18202 34.9086L3.9191 33.1911C2.9306 32.7979 1.77734 33.2531 1.32428 34.2257L0.19162 36.7503C-0.282039 37.7642 0.150412 38.9644 1.18012 39.4403C1.44784 39.5645 1.73616 39.6266 2.02447 39.6266C2.78644 39.6266 3.52782 39.192 3.85732 38.4471L4.20741 37.7021L8.6145 39.4817C9.12934 39.6887 9.70596 39.668 10.2002 39.4403C10.6945 39.2127 11.0858 38.7988 11.2711 38.2815L12.6715 34.4119L15.6576 37.4952L17.6758 44.5308C17.9229 45.3999 18.7261 46 19.6322 46H21.1767C22.2888 46 23.1949 45.0895 23.1949 43.9721C23.1949 42.834 22.2888 41.9235 21.1767 41.9235H21.1561L19.4057 35.8811C19.3233 35.5501 19.1379 35.2603 18.9114 35.012L14.2572 30.2113L15.3487 26.0106L16.4813 28.1834C16.8726 28.9076 17.6552 29.3215 18.4789 29.2387L24.0393 28.7214L23.8333 29.6319L24.8012 29.8388L25.069 28.5972C26.0781 28.411 26.7988 27.4591 26.6959 26.4245C26.6341 25.8037 26.3046 25.2863 25.8515 24.9553L29.579 7.30414H29.5584L29.5584 7.30416Z" fill="white"/>
</svg>
