<svg width="74" height="18" viewBox="0 0 74 18" fill="none" xmlns="http://www.w3.org/2000/svg">
<path d="M4.76 11.672H7.664L10.424 16.256C10.808 16.904 11.48 17.24 12.2 17.24C13.352 17.24 14.336 16.232 14.336 15.104C14.336 14.744 14.24 14.408 14.048 14.096L11.888 10.664C12.104 10.52 12.32 10.352 12.536 10.16C13.808 9.008 14.336 7.568 14.336 6.128C14.336 4.4 13.664 2.792 12.44 1.832C11.36 0.991999 9.848 0.655999 8.24 0.655999H2.648C1.472 0.655999 0.536 1.568 0.536 2.72V15.2C0.536 16.328 1.472 17.24 2.648 17.24C3.776 17.24 4.76 16.328 4.76 15.2V11.672ZM7.952 4.232C8.456 4.232 8.984 4.352 9.368 4.64C9.8 4.952 10.04 5.456 10.04 6.176C10.04 6.92 9.752 7.448 9.296 7.76C8.912 8 8.408 8.12 7.904 8.12H4.76V4.232H7.952ZM15.8579 12.176C15.8579 13.616 16.2419 14.72 16.9139 15.512C17.9219 16.712 19.5539 17.24 21.5219 17.24C23.4899 17.24 25.1219 16.712 26.1299 15.512C26.8019 14.72 27.1859 13.616 27.1859 12.176V7.592C27.1859 6.56 26.3219 5.72 25.2419 5.72C24.1619 5.72 23.2979 6.56 23.2979 7.592V12.056C23.2979 12.488 23.2259 12.896 23.0579 13.232C22.7939 13.736 22.3139 14.072 21.5219 14.072C20.7299 14.072 20.2499 13.736 19.9859 13.232C19.8179 12.896 19.7459 12.488 19.7459 12.056V7.592C19.7459 6.56 18.8819 5.72 17.8019 5.72C16.7219 5.72 15.8579 6.56 15.8579 7.592V12.176ZM43.3409 2.84C43.3409 1.904 42.7169 1.28 41.8049 0.967999C40.7489 0.607999 39.6929 0.439999 38.2289 0.439999C33.4769 0.439999 29.3489 3.968 29.3489 8.816C29.3489 14 33.0449 17.24 38.1809 17.24C39.6449 17.24 40.9649 17 42.0449 16.616C42.8849 16.304 43.6289 15.656 43.6289 14.72C43.6289 13.592 42.7409 12.752 41.6609 12.752C41.1569 12.752 40.6289 12.992 39.8609 13.184C39.4049 13.304 38.8289 13.4 38.1329 13.4C35.6129 13.4 33.7649 11.48 33.7649 8.816C33.7649 6.128 35.7569 4.232 38.1329 4.232C38.8529 4.232 39.3569 4.304 39.7889 4.424C40.4609 4.592 40.8689 4.808 41.3729 4.808C42.4529 4.808 43.3409 3.992 43.3409 2.84ZM57.4756 4.4C58.4836 4.4 59.2996 3.56 59.2996 2.528C59.2996 1.52 58.4836 0.655999 57.4756 0.655999H46.3396C45.3316 0.655999 44.5156 1.52 44.5156 2.528C44.5156 3.56 45.3316 4.4 46.3396 4.4H49.7956V15.2C49.7956 16.328 50.7556 17.24 51.9076 17.24C53.0356 17.24 54.0196 16.328 54.0196 15.2V4.4H57.4756ZM62.9527 0.655999C61.8007 0.655999 60.8407 1.568 60.8407 2.696V15.2C60.8407 16.328 61.8007 17.24 62.9527 17.24C64.0807 17.24 65.0647 16.328 65.0647 15.2V10.64H70.3927C71.4007 10.64 72.2167 9.8 72.2167 8.768C72.2167 7.76 71.4007 6.896 70.3927 6.896H65.0647V4.4H71.4247C72.4327 4.4 73.2487 3.56 73.2487 2.528C73.2487 1.52 72.4327 0.655999 71.4247 0.655999H62.9527Z" fill="white"/>
</svg>
