<svg width="32" height="32" viewBox="0 0 32 32" fill="none" xmlns="http://www.w3.org/2000/svg">
<path fill-rule="evenodd" clip-rule="evenodd" d="M6 0C2.68629 0 0 2.68629 0 6V26C0 29.3137 2.68629 32 6 32H26C29.3137 32 32 29.3137 32 26V6C32 2.68629 29.3137 0 26 0H6ZM9.95824 17.4309L4.95483 15.6247C4.44664 15.4405 4.44223 14.7466 4.94897 14.5576L25.4831 6.89601C25.9184 6.73317 26.3676 7.10204 26.2728 7.5442L22.5878 24.6882C22.5009 25.093 22.0103 25.2765 21.6639 25.033L16.6336 21.5007C16.3281 21.2862 15.9117 21.2977 15.6193 21.5281L12.8303 23.7271C12.5066 23.9831 12.0188 23.8405 11.8949 23.4547L9.95824 17.4309ZM21.3613 10.6444L11.5828 16.4694C11.208 16.6931 11.0315 17.1309 11.1526 17.5407L12.2099 21.1338C12.2849 21.3884 12.667 21.3623 12.7034 21.0992L12.9783 19.1288C13.0302 18.7578 13.2131 18.4161 13.4968 18.1607L21.5669 10.9052C21.7178 10.7698 21.537 10.54 21.3613 10.6444Z" fill="#FAFAFA"/>
</svg>
