<svg width="48" height="48" viewBox="0 0 100 100" fill="none" xmlns="http://www.w3.org/2000/svg">
<path fill-rule="evenodd" clip-rule="evenodd" d="M6 0.285156C2.68629 0.285156 0 2.97145 0 6.28516V42.2852C0 45.5989 2.68629 48.2852 6 48.2852H42C45.3137 48.2852 48 45.5989 48 42.2852V6.28516C48 2.97145 45.3137 0.285156 42 0.285156H6ZM14.9378 26.4324L7.43273 23.7231C6.67045 23.4468 6.66383 22.406 7.42394 22.1224L38.2252 10.6301C38.8781 10.3858 39.5519 10.9391 39.4097 11.6024L33.8822 37.3183C33.7519 37.9255 33.0159 38.2008 32.4964 37.8356L24.9509 32.5371C24.4926 32.2154 23.868 32.2326 23.4294 32.5782L19.246 35.8767C18.7603 36.2608 18.0287 36.0469 17.8428 35.4681L14.9378 26.4324ZM32.0424 16.2526L17.3746 24.9902C16.8124 25.3258 16.5478 25.9824 16.7294 26.5971L18.3153 31.9868C18.4279 32.3687 19.001 32.3295 19.0556 31.9349L19.468 28.9793C19.5457 28.4228 19.8202 27.9102 20.2457 27.5271L32.3509 16.6439C32.5773 16.4408 32.306 16.096 32.0424 16.2526Z" fill="#B99579"/>
</svg>
