<svg width="48" height="48" viewBox="0 0 48 48" fill="none" xmlns="http://www.w3.org/2000/svg">
<path fill-rule="evenodd" clip-rule="evenodd" d="M6 0C2.68629 0 0 2.68629 0 6V42C0 45.3137 2.68629 48 6 48H42C45.3137 48 48 45.3137 48 42V6C48 2.68629 45.3137 0 42 0H6ZM37.3049 16.066C38.6566 15.9091 39.9445 15.561 41.1429 15.0442C40.2471 16.3455 39.1139 17.4885 37.8084 18.4048C38.2318 27.5348 31.2221 37.7143 18.8151 37.7143C15.0423 37.7143 11.5286 36.6398 8.57143 34.798C12.1163 35.204 15.6557 34.2482 18.465 32.1084C15.539 32.0557 13.0717 30.1796 12.2221 27.6008C13.2699 27.7959 14.2999 27.7379 15.2404 27.49C12.0267 26.8638 9.80779 24.0503 9.88107 21.043C10.7809 21.5295 11.8123 21.8208 12.9061 21.8551C9.93129 19.9223 9.0885 16.1055 10.8392 13.1879C14.1357 17.1154 19.0594 19.6995 24.6115 19.9698C23.6371 15.9104 26.8074 12 31.1217 12C33.0434 12 34.7819 12.7884 35.9993 14.0501C37.522 13.7588 38.9524 13.2182 40.2431 12.4746C39.745 13.9908 38.6851 15.2631 37.3049 16.066Z" fill="white"/>
</svg>
