<svg width="48" height="48" viewBox="0 0 100 100" fill="none" xmlns="http://www.w3.org/2000/svg">
<path fill-rule="evenodd" clip-rule="evenodd" d="M6.57227 0.285156C3.25856 0.285156 0.572266 2.97145 0.572266 6.28516V42.2852C0.572266 45.5989 3.25856 48.2852 6.57227 48.2852H42.5723C45.886 48.2852 48.5723 45.5989 48.5723 42.2852V6.28516C48.5723 2.97145 45.886 0.285156 42.5723 0.285156H6.57227ZM37.878 16.3515C39.2297 16.1946 40.5176 15.8466 41.716 15.3298C40.8203 16.631 39.687 17.7741 38.3815 18.6904C38.8049 27.8204 31.7952 37.9998 19.3882 37.9998C15.6154 37.9998 12.1017 36.9253 9.14453 35.0835C12.6894 35.4896 16.2288 34.5337 19.0381 32.394C16.1121 32.3412 13.6448 30.4651 12.7952 27.8863C13.843 28.0814 14.873 28.0234 15.8135 27.7756C12.5998 27.1493 10.3809 24.3358 10.4542 21.3285C11.354 21.815 12.3854 22.1064 13.4792 22.1407C10.5044 20.2079 9.6616 16.3911 11.4123 13.4734C14.7088 17.401 19.6325 19.9851 25.1846 20.2553C24.2102 16.196 27.3805 12.2856 31.6948 12.2856C33.6165 12.2856 35.355 13.074 36.5724 14.3357C38.0951 14.0443 39.5255 13.5038 40.8162 12.7602C40.3181 14.2764 39.2582 15.5486 37.878 16.3515Z" fill="#B99579"/>
</svg>
