<svg width="24" height="24" viewBox="0 0 24 24" fill="none" xmlns="http://www.w3.org/2000/svg">
<path fill-rule="evenodd" clip-rule="evenodd" d="M6 0C2.68629 0 0 2.68629 0 6V18C0 21.3137 2.68629 24 6 24H18C21.3137 24 24 21.3137 24 18V6C24 2.68629 21.3137 0 18 0H6ZM18.6519 8.03299C19.3277 7.95454 19.9717 7.78051 20.5709 7.52211C20.123 8.17274 19.5564 8.74427 18.9036 9.20242C19.1153 13.7674 15.6105 18.8571 9.40701 18.8571C7.52059 18.8571 5.76376 18.3199 4.28516 17.399C6.05759 17.602 7.8273 17.1241 9.23194 16.0542C7.76894 16.0278 6.5353 15.0898 6.11051 13.8004C6.63437 13.8979 7.14941 13.8689 7.61966 13.745C6.0128 13.4319 4.90334 12.0251 4.93998 10.5215C5.38987 10.7647 5.90559 10.9104 6.45251 10.9276C4.96509 9.96116 4.54369 8.05277 5.41905 6.59394C7.0673 8.55772 9.52916 9.84976 12.3052 9.9849C11.818 7.9552 13.4031 6 15.5603 6C16.5212 6 17.3904 6.3942 17.9991 7.02506C18.7604 6.87938 19.4757 6.60911 20.121 6.23731C19.8719 6.9954 19.342 7.63153 18.6519 8.03299Z" fill="#fff"/>
</svg>
