<svg width="88" height="29" viewBox="0 0 88 29" fill="none" xmlns="http://www.w3.org/2000/svg">
<path d="M72.1672 7.25054V1.71294H70.9853L68.5906 5.48943V1.71294H67.4199V7.25054H68.6018L70.9853 3.50349V7.25054H72.1672ZM68.2678 0.679822C68.7089 0.992453 69.2439 1.16128 69.7936 1.16128C70.3432 1.16128 70.8782 0.992453 71.3194 0.679822L70.8337 0C70.5343 0.216012 70.169 0.332904 69.7936 0.332904C69.4181 0.332904 69.0528 0.216012 68.7534 0L68.2678 0.679822Z" fill="white"/>
<path d="M33.9165 5.41139V3.5004C33.9165 2.29599 33.2427 1.61082 31.9934 1.61082C31.5218 1.61082 30.7104 1.79014 30.3792 2.04976C30.2894 1.85199 30.1251 1.69348 29.9188 1.60547L29.1748 2.2612C29.2763 2.34636 29.3548 2.45357 29.4037 2.57376C29.4525 2.69395 29.4703 2.82359 29.4555 2.95173V9.02728H30.6627V7.10023C31.0509 7.25387 31.4665 7.33475 31.8867 7.33843C33.0097 7.33843 33.9052 6.66129 33.9052 5.41139H33.9165ZM32.6981 5.53183C32.6981 6.01626 32.1927 6.308 31.7323 6.308C31.3573 6.30025 30.9916 6.19573 30.6739 6.00556V3.02131C30.9902 2.77004 31.3854 2.62683 31.7969 2.61449C31.9111 2.6102 32.0251 2.62768 32.1321 2.66591C32.2391 2.70413 32.3371 2.76234 32.4202 2.83712C32.5034 2.9119 32.57 3.00174 32.6163 3.10139C32.6625 3.20103 32.6875 3.30848 32.6896 3.41743L32.6981 5.53183Z" fill="white"/>
<path d="M44.8087 7.25327V1.69963H40.8194V5.13887C40.8194 5.83742 40.3618 6.42089 39.7218 6.43695C39.5371 6.451 39.3542 6.39464 39.2132 6.28022C39.0721 6.16581 38.9844 6.0027 38.9694 5.82672V3.47947C38.9694 2.33127 38.3321 1.60595 36.9761 1.60595C36.2216 1.59245 35.4921 1.86374 34.9464 2.36071L35.5837 3.10476C35.933 2.79717 36.3835 2.61461 36.8582 2.58821C37.2597 2.58821 37.765 2.75682 37.765 3.27338V3.86488H36.7768C35.3731 3.86488 34.7695 4.72134 34.7695 5.62063C34.7695 6.51992 35.2692 7.33356 36.6954 7.33356C37.1964 7.31412 37.6734 7.12421 38.0401 6.79827C38.2664 7.00428 38.5363 7.16173 38.8317 7.26006C39.127 7.35839 39.4411 7.39532 39.7526 7.36835C41.1255 7.32553 41.9986 6.62162 41.9705 5.09337V2.64977H43.6296V7.25327H44.8087ZM37.765 5.9766C37.6161 6.13745 37.4253 6.25802 37.2118 6.32615C36.9984 6.39429 36.7699 6.40758 36.5494 6.36468C36.3921 6.32679 36.2521 6.2409 36.1507 6.1201C36.0493 5.9993 35.9922 5.85022 35.9879 5.69557C35.9801 5.58151 35.9979 5.46717 36.0401 5.36019C36.0823 5.25321 36.148 5.15606 36.2328 5.07523C36.3176 4.99441 36.4195 4.93177 36.5317 4.89151C36.6439 4.85125 36.7639 4.8343 36.8835 4.84178H37.7762L37.765 5.9766Z" fill="white"/>
<path d="M60.7628 7.25554L58.6039 4.32482L60.6224 1.7126H59.2468L57.7364 3.8832H56.9925V1.69922H55.8105V7.25554H56.97L56.9812 4.83335H57.7168L59.3843 7.25554H60.7628Z" fill="white"/>
<path d="M46.04 7.26357V1.69922H47.2472V3.57274H48.0894C49.4931 3.57274 50.2567 4.39708 50.2427 5.34455C50.2287 6.29201 49.5324 7.25286 48.1063 7.25286L46.04 7.26357ZM47.2472 6.30272H48.2635C48.7969 6.30272 49.0075 5.74602 49.0075 5.37399C49.0178 5.27051 49.0061 5.1661 48.9729 5.06708C48.9397 4.96805 48.8858 4.87648 48.8144 4.79791C48.743 4.71934 48.6556 4.6554 48.5575 4.60996C48.4595 4.56453 48.3528 4.53854 48.2438 4.53358H47.2472V6.30272Z" fill="white"/>
<path d="M55.0399 6.62841L54.543 5.79336C53.858 6.25371 53.4453 6.39021 53.1028 6.39021C52.62 6.39021 52.1371 6.15201 52.1371 5.67025V3.52909C52.147 3.40864 52.1818 3.29123 52.2394 3.18361C52.297 3.07599 52.3764 2.98028 52.4729 2.90195C52.5694 2.82362 52.6811 2.76423 52.8018 2.72717C52.9224 2.69012 53.0495 2.67613 53.1758 2.68601C53.6334 2.72126 54.0594 2.92241 54.3662 3.24807L54.9922 2.49331C54.7589 2.21274 54.4591 1.98885 54.1176 1.83998C53.776 1.69112 53.4023 1.6215 53.027 1.63685C51.8367 1.63685 50.9131 2.3354 50.9131 3.53712V5.6194C50.9131 6.79971 51.8704 7.35373 53.0523 7.35373C53.7845 7.34624 54.4896 7.08892 55.0399 6.62841Z" fill="white"/>
<path d="M66.1945 7.25049V1.71289H65.0126L62.6179 5.48938V1.71289H61.4473V7.25049H62.6179H62.6292L65.0126 3.49274V7.25049H66.1945Z" fill="white"/>
<path d="M29.1437 0H27.7934L26.7518 3.30274C26.7322 3.3643 26.7069 3.43121 26.6901 3.49545C26.6732 3.55968 26.662 3.61589 26.6564 3.66139C26.6507 3.70689 26.6564 3.73098 26.6564 3.73365C26.6564 3.73633 26.6564 3.70957 26.6564 3.66407C26.6564 3.61857 26.6367 3.56504 26.6227 3.50348C26.6086 3.43868 26.5889 3.37512 26.5637 3.31345L24.986 0H23.6104L26.078 5.16823L25.9236 5.54294C25.7243 5.95511 25.2049 6.41279 24.2757 6.45026L24.4245 7.34419C25.7917 7.37363 26.6929 6.79552 27.041 5.82664L29.1437 0Z" fill="white"/>
<path d="M88.0002 16.6451V11.1048H86.8183L84.4236 14.8813V11.1048H83.2529V16.6451H84.4376L86.8183 12.898V16.6451H88.0002ZM84.1008 10.0717C84.5419 10.3843 85.0769 10.5531 85.6266 10.5531C86.1762 10.5531 86.7113 10.3843 87.1524 10.0717L86.6667 9.39453C86.3667 9.6093 86.0017 9.72541 85.6266 9.72541C85.2514 9.72541 84.8864 9.6093 84.5864 9.39453L84.1008 10.0717Z" fill="white"/>
<path d="M82.0314 11.1045H80.8467V16.6421H82.0314V11.1045Z" fill="white"/>
<path d="M75.9824 16.6688V11.1045H77.2036V12.978H78.0458C79.4495 12.978 80.2103 13.8024 80.1991 14.7471C80.1879 15.6919 79.4888 16.6555 78.0627 16.6555L75.9824 16.6688ZM77.1896 15.708H78.2031C78.7365 15.708 78.9498 15.1513 78.9498 14.7819C78.9598 14.6785 78.9478 14.5743 78.9144 14.4754C78.8811 14.3766 78.8271 14.2851 78.7558 14.2066C78.6845 14.1282 78.5973 14.0642 78.4994 14.0187C78.4015 13.9731 78.295 13.9469 78.1862 13.9415H77.2036L77.1896 15.708Z" fill="white"/>
<path d="M30.4551 14.8064V12.8954C30.4551 11.6937 29.874 11.0058 28.6247 11.0058C28.2879 11.007 27.9567 11.0889 27.6618 11.244V10.2002H26.4546V11.2413C26.1608 11.086 25.8305 11.004 25.4945 11.0031C24.2452 11.0031 23.6641 11.691 23.6641 12.8927V14.8037C23.6641 16.0536 24.4557 16.7281 25.5899 16.7281C25.8949 16.7214 26.1929 16.6393 26.4546 16.4899V18.4277H27.6618V16.4926C27.9246 16.642 28.2234 16.724 28.5293 16.7308C29.6522 16.7308 30.4551 16.0563 30.4551 14.8064ZM26.4546 12.3521V15.4006C26.3765 15.5053 26.2706 15.5885 26.1478 15.6416C26.0251 15.6947 25.8897 15.7159 25.7556 15.703C25.6441 15.7096 25.5324 15.6944 25.4272 15.6584C25.3221 15.6225 25.2257 15.5665 25.144 15.4938C25.0623 15.4212 24.997 15.3335 24.952 15.236C24.9071 15.1385 24.8834 15.0333 24.8825 14.9268V12.8098C24.8742 12.7057 24.8889 12.6012 24.9256 12.5028C24.9623 12.4045 25.0202 12.3147 25.0956 12.239C25.171 12.1634 25.2622 12.1036 25.3633 12.0636C25.4644 12.0236 25.5732 12.0043 25.6826 12.0068C25.8298 12.0045 25.9756 12.0339 26.1093 12.0928C26.2429 12.1516 26.361 12.2384 26.4546 12.3467V12.3521ZM29.2367 14.9268C29.2358 15.0333 29.2121 15.1385 29.1671 15.236C29.1222 15.3335 29.0569 15.4212 28.9752 15.4938C28.8935 15.5665 28.7971 15.6225 28.692 15.6584C28.5868 15.6944 28.4751 15.7096 28.3636 15.703C28.2291 15.7156 28.0935 15.6943 27.9703 15.6412C27.8471 15.5881 27.7408 15.5051 27.6618 15.4006V12.518C27.7555 12.4098 27.8736 12.3231 28.0072 12.2643C28.1409 12.2055 28.2866 12.176 28.4338 12.1781C28.5435 12.1752 28.6525 12.1943 28.754 12.2341C28.8554 12.2739 28.9469 12.3336 29.0226 12.4093C29.0983 12.485 29.1565 12.575 29.1934 12.6735C29.2303 12.772 29.245 12.8768 29.2367 12.981V14.9268Z" fill="white"/>
<path d="M35.8616 16.0002L35.3534 15.1304C34.9055 15.5034 34.3339 15.7138 33.7392 15.7245C33.1609 15.7245 32.7145 15.4221 32.7145 14.8253V14.3114H35.7353V12.9731C35.7353 11.568 34.8004 11.0273 33.6802 11.0273C32.3945 11.0273 31.4961 11.659 31.4961 13.0427V14.8841C31.4961 16.1207 32.3383 16.7416 33.6466 16.7416C34.6011 16.7416 35.1794 16.4499 35.8616 16.0109V16.0002ZM34.5309 12.6734V13.3639H32.7285V12.7537C32.7285 12.2585 33.1749 11.9775 33.6943 11.9775C34.0003 11.9775 34.5309 12.1809 34.5309 12.6734Z" fill="white"/>
<path d="M41.5495 15.7109V11.1074H37.5434V14.1693C37.5434 14.8678 37.1166 15.6922 36.4766 15.7109H36.3643V18.0047H37.5153V16.6664H41.0161V18.0047H42.1952V15.7109H41.5495ZM38.2396 15.7109C38.5774 15.2781 38.7435 14.7452 38.7084 14.2068V12.0656H40.3676V15.7109H38.2396Z" fill="white"/>
<path d="M74.7598 16.6447V11.1045H73.5751V13.2697H71.1832V11.1045H70.0098V16.6447H71.1832V14.2172H73.5751V16.6447H74.7598Z" fill="white"/>
<path d="M52.8013 14.8198V12.9062C52.8013 11.7044 52.1275 11.0166 50.8782 11.0166C50.4065 11.0166 49.5924 11.1986 49.2639 11.4555C49.1724 11.2608 49.0084 11.1053 48.8035 11.0193L48.0596 11.675C48.1615 11.7604 48.2402 11.8681 48.2891 11.9888C48.338 12.1095 48.3556 12.2396 48.3403 12.3682V18.4411H49.5475V16.506C49.9357 16.6596 50.3512 16.7405 50.7715 16.7442C51.8945 16.7442 52.79 16.0671 52.79 14.8198H52.8013ZM51.5828 14.9403C51.5828 15.422 51.0775 15.7164 50.6171 15.7164C50.2419 15.7078 49.8761 15.6023 49.5587 15.4113V12.4271C49.8749 12.1761 50.2704 12.0337 50.6817 12.0229C50.7959 12.0187 50.9098 12.0361 51.0169 12.0744C51.1239 12.1126 51.2219 12.1708 51.305 12.2456C51.3882 12.3204 51.4548 12.4102 51.5011 12.5098C51.5473 12.6095 51.5723 12.7169 51.5744 12.8259L51.5828 14.9403Z" fill="white"/>
<path d="M63.6931 16.6586V11.1049H59.701V14.5442C59.701 15.2428 59.2462 15.8262 58.6062 15.8423C58.4223 15.8563 58.2401 15.8003 58.0995 15.6863C57.959 15.5724 57.8716 15.41 57.8566 15.2347V12.8955C57.8566 11.75 57.2165 11.022 55.8605 11.022C55.106 11.0085 54.3765 11.2798 53.8308 11.7767L54.4625 12.5181C54.8109 12.2088 55.2617 12.0251 55.737 11.9989C56.1385 11.9989 56.641 12.1702 56.641 12.6841V13.2756H55.6528C54.2491 13.2756 53.6455 14.132 53.6455 15.034C53.6455 15.936 54.1424 16.7443 55.5714 16.7443C56.0721 16.7239 56.5489 16.5341 56.9161 16.209C57.1429 16.4141 57.413 16.5707 57.7082 16.6686C58.0035 16.7664 58.3173 16.8032 58.6286 16.7764C60.0014 16.7336 60.8745 16.0296 60.8465 14.5041V12.0444H62.5056V16.6479L63.6931 16.6586ZM56.6466 15.3819C56.203 15.9333 54.8808 16.0029 54.8611 15.1143C54.8533 15.0005 54.871 14.8864 54.9131 14.7796C54.9551 14.6728 55.0206 14.5758 55.1051 14.495C55.1895 14.4142 55.2911 14.3515 55.4029 14.3111C55.5148 14.2707 55.6344 14.2534 55.7539 14.2605H56.6466V15.3819Z" fill="white"/>
<path d="M64.916 16.6688V11.1045H66.1232V12.978H66.9654C68.3691 12.978 69.1327 13.8024 69.1187 14.7471C69.1046 15.6919 68.4084 16.6555 66.9822 16.6555L64.916 16.6688ZM66.1232 15.708H67.1395C67.6729 15.708 67.8834 15.1513 67.8834 14.7819C67.8938 14.6785 67.882 14.574 67.8488 14.475C67.8157 14.376 67.7617 14.2844 67.6904 14.2059C67.619 14.1273 67.5316 14.0633 67.4335 14.0179C67.3354 13.9725 67.2287 13.9465 67.1198 13.9415H66.1232V15.708Z" fill="white"/>
<path d="M47.3328 16.0002L46.8246 15.1304C46.3737 15.5058 45.7977 15.7163 45.1992 15.7245C44.6208 15.7245 44.1745 15.4221 44.1745 14.8253V14.3114H47.1924V12.9731C47.1924 11.568 46.2603 11.0273 45.1402 11.0273C43.8544 11.0273 42.9561 11.659 42.9561 13.0427V14.8841C42.9561 16.1207 43.7983 16.7416 45.1037 16.7416C46.0582 16.7416 46.6365 16.4499 47.3215 16.0109L47.3328 16.0002ZM45.9852 12.6734V13.3639H44.1857V12.7537C44.1857 12.2585 44.6321 11.9775 45.1514 11.9775C45.4799 11.9775 45.9852 12.1809 45.9852 12.6734Z" fill="white"/>
<path d="M28.6359 20.5137H27.3305L26.143 24.8201C26.1394 24.5531 26.095 24.288 26.011 24.0332L25.0004 20.5137H23.6641C23.6641 20.5137 25.2193 25.2082 25.5843 26.0299C25.4074 26.7552 24.992 27.2396 24.1104 27.3173L24.2255 28.1604C25.5619 28.1604 26.3198 27.4725 26.595 26.6267L28.6359 20.5137Z" fill="white"/>
<path d="M34.1495 26.054V20.5137H32.9648V22.6789H30.5729V20.5137H29.3994V26.054H30.5729V23.6264H32.9648V26.054H34.1495Z" fill="white"/>
<path d="M40.1203 26.054V20.5137H38.9356L36.5437 24.2902V20.5137H35.373V26.054H36.5437H36.555L38.9356 22.2935V26.054H40.1203Z" fill="white"/>
<path d="M41.3447 26.054V20.5137H43.4194C44.8455 20.5137 45.2919 21.3434 45.2695 21.975C45.2739 22.205 45.2098 22.4315 45.0846 22.6281C44.9593 22.8247 44.7781 22.9834 44.562 23.0858C44.852 23.1773 45.1039 23.3546 45.2811 23.5918C45.4583 23.8291 45.5515 24.114 45.5474 24.4053C45.5474 25.2082 44.927 26.054 43.5008 26.054H41.3447ZM42.5519 21.4745V22.6709H43.4194C43.5025 22.6785 43.5863 22.6684 43.6648 22.6413C43.7433 22.6141 43.8144 22.5707 43.873 22.514C43.9317 22.4573 43.9763 22.3889 44.0037 22.3138C44.0311 22.2386 44.0405 22.1585 44.0314 22.0794C44.036 22.002 44.024 21.9245 43.9962 21.8516C43.9684 21.7787 43.9254 21.712 43.8697 21.6554C43.8141 21.5989 43.747 21.5537 43.6725 21.5226C43.5979 21.4915 43.5176 21.4751 43.4362 21.4745H42.5519ZM42.5519 25.0904H43.5654C43.6694 25.0913 43.7724 25.0713 43.8678 25.0316C43.9632 24.992 44.0487 24.9337 44.1189 24.8605C44.1891 24.7873 44.2423 24.7008 44.2751 24.6067C44.3079 24.5126 44.3196 24.4129 44.3093 24.3143C44.3165 24.2181 44.3014 24.1216 44.2652 24.0316C44.2289 23.9416 44.1724 23.8602 44.0996 23.7934C44.0267 23.7265 43.9394 23.6757 43.8437 23.6445C43.748 23.6133 43.6463 23.6026 43.5457 23.613H42.5519V25.0904Z" fill="white"/>
<path d="M67.7734 20.5137V21.4638H69.2445L69.2417 26.0673H69.3175H70.4236H70.5022L70.4994 21.4638H71.9677V20.5137H67.7734Z" fill="white"/>
<path d="M77.4248 20.5137V21.4638H78.8931V26.0673H78.9689H80.075H80.1508V21.4638H81.619V20.5137H77.4248Z" fill="white"/>
<path d="M66.8957 26.054V20.5137H65.7138L63.3191 24.2902V20.5137H62.1484V26.054H63.3191H63.3303L65.7138 22.2935V26.054H66.8957Z" fill="white"/>
<path d="M56.2191 24.2137V22.3C56.2191 21.0983 55.5453 20.4265 54.296 20.4265C53.8244 20.4265 53.0102 20.6058 52.679 20.8627C52.5918 20.662 52.4269 20.501 52.2186 20.4131L51.4746 21.0688C51.5765 21.1543 51.6553 21.2619 51.7041 21.3826C51.753 21.5033 51.7706 21.6335 51.7553 21.762V27.8349H52.9625V25.8999C53.3507 26.0535 53.7663 26.1344 54.1865 26.1381C55.3095 26.1381 56.205 25.4609 56.205 24.2137H56.2191ZM55.0007 24.3314C55.0007 24.8159 54.4953 25.1076 54.0349 25.1076C53.66 25.0999 53.2942 24.9953 52.9766 24.8052V21.8209C53.2927 21.5699 53.6882 21.4275 54.0995 21.4168C54.2139 21.4125 54.328 21.4299 54.4351 21.4681C54.5423 21.5063 54.6405 21.5645 54.7238 21.6392C54.8072 21.714 54.8741 21.8038 54.9207 21.9035C54.9673 22.0031 54.9925 22.1106 54.9951 22.2197L55.0007 24.3314Z" fill="white"/>
<path d="M61.3808 25.4273L60.8839 24.5923C60.1989 25.0526 59.7862 25.1891 59.4465 25.1891C58.9608 25.1891 58.4807 24.9509 58.4807 24.4692V22.328C58.4871 22.2055 58.5192 22.0856 58.5751 21.9752C58.631 21.8648 58.7096 21.7662 58.8062 21.6854C58.9028 21.6045 59.0155 21.5429 59.1375 21.5044C59.2596 21.4658 59.3885 21.451 59.5167 21.4608C59.9749 21.4959 60.4013 21.6982 60.707 22.0255L61.333 21.2681C61.0994 20.988 60.7995 20.7646 60.458 20.6162C60.1164 20.4678 59.7429 20.3986 59.3679 20.4143C58.1775 20.4143 57.2539 21.1102 57.2539 22.3146V24.3942C57.2539 25.5745 58.2112 26.1286 59.3903 26.1286C60.1203 26.1284 60.8261 25.8797 61.3808 25.4273Z" fill="white"/>
<path d="M76.9523 25.3943L76.4413 24.5244C75.9938 24.8984 75.4221 25.1098 74.8271 25.1213C74.2488 25.1213 73.8024 24.8161 73.8024 24.2193V23.7081H76.8231V22.3699C76.8231 20.9647 75.8883 20.4268 74.7681 20.4268C73.4823 20.4268 72.584 21.0557 72.584 22.4395V24.2835C72.584 25.5201 73.4262 26.141 74.7316 26.141C75.689 26.141 76.2673 25.8439 76.9523 25.4076V25.3943ZM75.6047 22.0674V22.7499H73.8024V22.1477C73.8024 21.6526 74.2488 21.3715 74.7681 21.3715C75.0854 21.3715 75.6047 21.575 75.6047 22.0674Z" fill="white"/>
<path d="M50.7717 25.3943L50.2524 24.5244C49.8048 24.8984 49.2331 25.1098 48.6381 25.1213C48.0598 25.1213 47.6134 24.8161 47.6134 24.2193V23.7081H50.6454V22.3699C50.6454 20.9647 49.7105 20.4268 48.5904 20.4268C47.3046 20.4268 46.4062 21.0557 46.4062 22.4395V24.2835C46.4062 25.5201 47.2485 26.141 48.5539 26.141C49.5112 26.141 50.0895 25.8439 50.7717 25.4076V25.3943ZM49.427 22.0674V22.7499H47.6247V22.1477C47.6247 21.6526 48.071 21.3715 48.5904 21.3715C48.9076 21.3715 49.427 21.575 49.427 22.0674Z" fill="white"/>
<path fill-rule="evenodd" clip-rule="evenodd" d="M0 1.13214C2.3947 1.13214 3.41097 2.72464 4.49182 4.4349L13.307 18.853C13.7225 19.573 14.1324 20.4428 14.1183 21.2618C14.0875 23.3816 11.1987 24.1577 9.46932 24.2407C8.21138 24.2825 6.96088 24.0404 5.81971 23.5341L5.11787 24.3959C5.52774 26.0607 7.14199 28.0788 9.36263 28.0654C13.2172 28.0386 15.2413 24.677 16.791 21.9416L19.6714 16.8617L11.339 3.24119C10.5698 2.0234 11.8331 1.1375 13.1751 1.12947L13.4755 0H0.306005L0 1.13214Z" fill="white"/>
</svg>
