<svg width="48" height="48" viewBox="0 0 48 48" fill="none" xmlns="http://www.w3.org/2000/svg">
<path fill-rule="evenodd" clip-rule="evenodd" d="M6 0C2.68629 0 0 2.68629 0 6V42C0 45.3137 2.68629 48 6 48H42C45.3137 48 48 45.3137 48 42V6C48 2.68629 45.3137 0 42 0H6ZM38.6793 16.7228C38.2758 18.6881 34.2089 24.6731 34.2089 24.6731C33.8308 25.2913 33.6694 25.6281 34.2043 26.2223C34.3544 26.4229 34.6319 26.7169 34.9573 27.0617C35.4513 27.5851 36.0558 28.2257 36.4936 28.8347C38.2712 30.8025 39.4286 32.4599 39.4286 33.386C39.4286 34.0885 39.0505 34.2857 38.647 34.2857H34.6884C33.842 34.2857 33.4811 33.8628 32.665 32.9066C32.2364 32.4042 31.6821 31.7547 30.8658 30.942C28.867 28.8852 28.0116 28.7217 27.5274 28.7217C27.0963 28.7217 26.8012 29.0584 26.8012 29.8451V32.9915C26.8012 33.9177 26.2894 34.2833 24.1891 34.2833C20.7423 34.2833 16.9174 32.063 14.0102 27.9615C9.67577 21.8658 8.57143 17.3145 8.57143 16.3307C8.57143 15.7966 8.94723 15.431 9.45905 15.431H12.9865C13.9018 15.431 14.2522 15.7124 14.575 16.7228C16.1912 21.6686 19.0708 26.0226 20.2835 26.0226C20.7423 26.0226 20.7953 25.6281 20.7953 24.6178V19.5878C20.7953 18.0702 20.2849 17.4186 19.8991 16.9261C19.6648 16.6271 19.4766 16.3867 19.4766 16.0468C19.4766 15.6908 19.7463 15.4286 20.1774 15.4286H25.8329C26.5868 15.4286 26.6952 15.71 26.6952 16.665V23.492C26.6952 24.2714 26.8473 24.5601 27.1793 24.5601C27.592 24.5601 27.9701 24.3003 28.7148 23.4367C31.0365 20.7665 32.9431 16.5255 32.9431 16.5255C33.1852 15.9915 33.4826 15.6258 34.2896 15.6258H37.817C38.5179 15.6258 38.813 16.0203 38.6793 16.7228Z" fill="white"/>
</svg>
