<svg width="48" height="48" viewBox="0 0 100 100" fill="none" xmlns="http://www.w3.org/2000/svg">
<path fill-rule="evenodd" clip-rule="evenodd" d="M6.14258 0.285156C2.82887 0.285156 0.142578 2.97145 0.142578 6.28516V42.2852C0.142578 45.5989 2.82887 48.2852 6.14258 48.2852H42.1426C45.4563 48.2852 48.1426 45.5989 48.1426 42.2852V6.28516C48.1426 2.97145 45.4563 0.285156 42.1426 0.285156H6.14258ZM38.8227 17.0084C38.4192 18.9738 34.3523 24.9588 34.3523 24.9588C33.9742 25.577 33.8128 25.9138 34.3477 26.508C34.4978 26.7086 34.7753 27.0026 35.1008 27.3474C35.5947 27.8708 36.1993 28.5113 36.6371 29.1204C38.4146 31.0881 39.572 32.7456 39.572 33.6717C39.572 34.3741 39.1939 34.5714 38.7904 34.5714H34.8318C33.9854 34.5714 33.6245 34.1485 32.8084 33.1922C32.3798 32.6899 31.8255 32.0404 31.0093 31.2277C29.0104 29.1709 28.155 29.0073 27.6709 29.0073C27.2397 29.0073 26.9446 29.3441 26.9446 30.1307V33.2772C26.9446 34.2033 26.4328 34.569 24.3325 34.569C20.8857 34.569 17.0608 32.3486 14.1536 28.2472C9.81919 22.1515 8.71484 17.6002 8.71484 16.6163C8.71484 16.0823 9.09064 15.7166 9.60247 15.7166H13.1299C14.0452 15.7166 14.3957 15.9981 14.7184 17.0084C16.3346 21.9542 19.2142 26.3083 20.4269 26.3083C20.8857 26.3083 20.9387 25.9138 20.9387 24.9035V19.8734C20.9387 18.3559 20.4283 17.7042 20.0425 17.2118C19.8083 16.9127 19.62 16.6724 19.62 16.3325C19.62 15.9764 19.8897 15.7142 20.3209 15.7142H25.9763C26.7302 15.7142 26.8386 15.9957 26.8386 16.9507V23.7777C26.8386 24.5571 26.9907 24.8457 27.3227 24.8457C27.7354 24.8457 28.1135 24.5859 28.8582 23.7223C31.1799 21.0522 33.0865 16.8112 33.0865 16.8112C33.3286 16.2771 33.626 15.9115 34.433 15.9115H37.9604C38.6613 15.9115 38.9564 16.306 38.8227 17.0084Z" fill="#B99579"/>
</svg>
