<svg width="201" height="74" viewBox="0 0 201 74" fill="none" xmlns="http://www.w3.org/2000/svg">
<g clip-path="url(#clip0)">
<path d="M15.9254 73.3446V49.5419L0 6.88164H8.01493L19.7463 39.7854L33.2537 0H40.6119L23.2836 49.8249V73.3446H15.9254Z" fill="white"/>
<path d="M200 26.4989L191.238 48.4248L201.014 73.3447H193.552L186.283 53.9808L179.209 73.3447H171.94L181.716 49.1547L172.88 26.5733H180.343L186.403 43.5838L192.82 26.5733L200 26.4989ZM148.94 45.6394H160.88C160.88 37.6406 159.567 31.7867 155.388 31.7867C150.91 31.7867 149.328 37.2682 148.865 45.6394H148.94ZM156.94 73.9405C147.253 73.9405 141.298 66.2247 141.298 51.806C141.298 36.7469 145.492 25.7839 155.462 25.7839C163.283 25.7839 168.403 31.6378 168.403 47.5311V51.5379H148.835C148.835 62.1285 151.82 67.6994 157.597 67.6994C160.843 67.6267 163.981 66.5203 166.552 64.5415L168.238 70.1273C165.03 72.659 161.044 74.0061 156.955 73.9405H156.94ZM126.761 34.021C126.063 33.2724 125.21 32.6847 124.262 32.2989C123.313 31.913 122.291 31.7382 121.268 31.7867C115.403 31.7867 112.612 40.6196 112.612 50.1973C112.612 61.1603 114.656 67.8632 119.97 67.8632C121.326 67.9313 122.675 67.6289 123.872 66.9884C125.068 66.348 126.067 65.3938 126.761 64.2287V34.021ZM104.88 51.6869C104.88 34.304 111.403 25.8435 120.806 25.8435C122.926 25.8305 125.002 26.4419 126.776 27.6011V6.88171H134.029V73.3447H128.626L128.074 69.6208H127.612C126.658 70.9803 125.389 72.0889 123.913 72.8516C122.436 73.6143 120.796 74.0084 119.134 74.0001C109.91 74.0001 104.88 66.18 104.88 51.6571V51.6869ZM78.6115 73.3447H71.3428V26.3946H78.6115V30.4908H79.104C80.2137 29.097 81.6129 27.9598 83.2053 27.1576C84.7976 26.3553 86.5453 25.907 88.3279 25.8435C94.4772 25.8435 97.7309 29.2843 97.7309 36.434V73.3447H90.3429V37.0894C90.3429 33.5592 88.7608 32.3527 85.9697 32.3527C82.8951 32.3527 80.2831 34.6764 78.6115 37.0001V73.3447ZM55.1339 48.9014H54.2981C45.2682 48.9014 43.313 52.8934 43.313 58.9409C43.313 64.3181 45.0742 67.8781 48.8055 67.8781C50.0817 67.8071 51.3223 67.4319 52.4234 66.784C53.5244 66.1361 54.4539 65.2344 55.1339 64.1543V48.9014ZM63.1488 73.3447H56.9996C56.684 72.123 56.4693 70.8776 56.3578 69.6208H55.8802C54.8913 71.0079 53.5771 72.1322 52.0525 72.8955C50.5279 73.6589 48.8392 74.0381 47.1339 74.0001C40.4175 74.0001 35.8652 68.9804 35.8652 59.775C35.8652 49.7356 40.9846 43.3902 54.119 43.3902H55.1339V40.6196C55.1339 34.4828 53.0891 31.891 48.9996 31.891C45.4961 32.0735 42.1796 33.5245 39.6712 35.9723L38.2831 29.5524C41.5118 27.1465 45.4328 25.8456 49.4622 25.8435C57.7458 25.8435 62.313 29.3737 62.313 40.7388V62.7392C62.3116 66.2908 62.591 69.837 63.1488 73.3447Z" fill="white"/>
</g>
<defs>
<clipPath id="clip0">
<rect width="201" height="74" fill="white"/>
</clipPath>
</defs>
</svg>
