<svg width="48" height="48" viewBox="0 0 100 100" fill="none" xmlns="http://www.w3.org/2000/svg">
<path d="M21.7246 28.7817L29.5315 24.2854L21.7246 19.7891V28.7817Z" fill="#B99579"/>
<path d="M44.0019 0.285156H5.50195C2.66994 0.285156 0.716797 3 0.716797 5.5V43C0.717081 46 2.49972 48.2852 5.50195 48.2852H44.0019C47.0019 48.2852 48.7168 46.2485 48.7168 43V5.5C48.7168 2.74292 46.5019 0.285156 44.0019 0.285156ZM39.7131 24.3097C39.7131 24.3097 39.7131 29.177 39.0957 31.524C38.7496 32.8087 37.7367 33.8217 36.452 34.1674C34.105 34.7852 24.7168 34.7852 24.7168 34.7852C24.7168 34.7852 15.3531 34.7852 12.9816 34.1428C11.6969 33.7971 10.684 32.7838 10.3379 31.4991C9.72009 29.177 9.72009 24.2852 9.72009 24.2852C9.72009 24.2852 9.72009 19.4182 10.3379 17.0712C10.6836 15.7865 11.7214 14.7487 12.9816 14.403C15.3286 13.7852 24.7168 13.7852 24.7168 13.7852C24.7168 13.7852 34.105 13.7852 36.452 14.4275C37.7367 14.7732 38.7496 15.7865 39.0957 17.0712C39.738 19.4182 39.7131 24.3097 39.7131 24.3097Z" fill="#B99579"/>
</svg>
