<svg width="176" height="48" viewBox="0 0 176 48" fill="none" xmlns="http://www.w3.org/2000/svg">
<path d="M74.096 9.36C75.1733 9.36 76.0267 9.67467 76.656 10.304C77.2853 10.9227 77.6 11.856 77.6 13.104V18H75.6V13.36C75.6 12.6133 75.4347 12.0533 75.104 11.68C74.7733 11.296 74.2987 11.104 73.68 11.104C73.008 11.104 72.4693 11.328 72.064 11.776C71.6587 12.2133 71.456 12.8427 71.456 13.664V18H69.456V13.36C69.456 12.6133 69.2907 12.0533 68.96 11.68C68.6293 11.296 68.1547 11.104 67.536 11.104C66.8533 11.104 66.3093 11.3227 65.904 11.76C65.5093 12.1973 65.312 12.832 65.312 13.664V18H63.312V9.456H65.216V10.544C65.536 10.16 65.936 9.86667 66.416 9.664C66.896 9.46133 67.4293 9.36 68.016 9.36C68.656 9.36 69.2213 9.48267 69.712 9.728C70.2133 9.96267 70.608 10.3147 70.896 10.784C71.248 10.336 71.7013 9.98933 72.256 9.744C72.8107 9.488 73.424 9.36 74.096 9.36ZM83.4198 9.36C84.6784 9.36 85.6384 9.664 86.2998 10.272C86.9718 10.8693 87.3078 11.776 87.3078 12.992V18H85.4198V16.96C85.1744 17.3333 84.8224 17.6213 84.3638 17.824C83.9158 18.016 83.3718 18.112 82.7318 18.112C82.0918 18.112 81.5318 18.0053 81.0518 17.792C80.5718 17.568 80.1984 17.264 79.9318 16.88C79.6758 16.4853 79.5478 16.0427 79.5478 15.552C79.5478 14.784 79.8304 14.1707 80.3958 13.712C80.9718 13.2427 81.8731 13.008 83.0998 13.008H85.3078V12.88C85.3078 12.2827 85.1264 11.824 84.7638 11.504C84.4118 11.184 83.8838 11.024 83.1798 11.024C82.6998 11.024 82.2251 11.0987 81.7558 11.248C81.2971 11.3973 80.9078 11.6053 80.5878 11.872L79.8038 10.416C80.2518 10.0747 80.7904 9.81333 81.4198 9.632C82.0491 9.45067 82.7158 9.36 83.4198 9.36ZM83.1478 16.656C83.6491 16.656 84.0918 16.544 84.4758 16.32C84.8704 16.0853 85.1478 15.7547 85.3078 15.328V14.336H83.2438C82.0918 14.336 81.5158 14.7147 81.5158 15.472C81.5158 15.8347 81.6598 16.1227 81.9478 16.336C82.2358 16.5493 82.6358 16.656 83.1478 16.656ZM98.3206 6.128V18H96.4006V16.896C96.07 17.3013 95.6593 17.6053 95.1686 17.808C94.6886 18.0107 94.1553 18.112 93.5686 18.112C92.7473 18.112 92.006 17.9307 91.3446 17.568C90.694 17.2053 90.182 16.6933 89.8086 16.032C89.4353 15.36 89.2486 14.592 89.2486 13.728C89.2486 12.864 89.4353 12.1013 89.8086 11.44C90.182 10.7787 90.694 10.2667 91.3446 9.904C92.006 9.54133 92.7473 9.36 93.5686 9.36C94.134 9.36 94.6513 9.456 95.1206 9.648C95.59 9.84 95.99 10.128 96.3206 10.512V6.128H98.3206ZM93.8086 16.4C94.2886 16.4 94.7206 16.2933 95.1046 16.08C95.4886 15.856 95.7926 15.5413 96.0166 15.136C96.2406 14.7307 96.3526 14.2613 96.3526 13.728C96.3526 13.1947 96.2406 12.7253 96.0166 12.32C95.7926 11.9147 95.4886 11.6053 95.1046 11.392C94.7206 11.168 94.2886 11.056 93.8086 11.056C93.3286 11.056 92.8966 11.168 92.5126 11.392C92.1286 11.6053 91.8246 11.9147 91.6006 12.32C91.3766 12.7253 91.2646 13.1947 91.2646 13.728C91.2646 14.2613 91.3766 14.7307 91.6006 15.136C91.8246 15.5413 92.1286 15.856 92.5126 16.08C92.8966 16.2933 93.3286 16.4 93.8086 16.4ZM108.969 13.776C108.969 13.9147 108.958 14.112 108.937 14.368H102.233C102.35 14.9973 102.654 15.4987 103.145 15.872C103.646 16.2347 104.265 16.416 105.001 16.416C105.94 16.416 106.713 16.1067 107.321 15.488L108.393 16.72C108.009 17.1787 107.524 17.5253 106.937 17.76C106.35 17.9947 105.689 18.112 104.953 18.112C104.014 18.112 103.188 17.9253 102.473 17.552C101.758 17.1787 101.204 16.6613 100.809 16C100.425 15.328 100.233 14.5707 100.233 13.728C100.233 12.896 100.42 12.1493 100.793 11.488C101.177 10.816 101.705 10.2933 102.377 9.92C103.049 9.54667 103.806 9.36 104.649 9.36C105.481 9.36 106.222 9.54667 106.873 9.92C107.534 10.2827 108.046 10.8 108.409 11.472C108.782 12.1333 108.969 12.9013 108.969 13.776ZM104.649 10.96C104.009 10.96 103.465 11.152 103.017 11.536C102.58 11.9093 102.313 12.4107 102.217 13.04H107.065C106.98 12.4213 106.718 11.92 106.281 11.536C105.844 11.152 105.3 10.96 104.649 10.96ZM128.64 9.456L125.488 18H123.568L121.36 12.112L119.12 18H117.2L114.064 9.456H115.952L118.208 15.76L120.56 9.456H122.24L124.544 15.792L126.864 9.456H128.64ZM130.015 9.456H132.015V18H130.015V9.456ZM131.023 8.048C130.66 8.048 130.356 7.936 130.111 7.712C129.866 7.47733 129.743 7.18933 129.743 6.848C129.743 6.50667 129.866 6.224 130.111 6C130.356 5.76533 130.66 5.648 131.023 5.648C131.386 5.648 131.69 5.76 131.935 5.984C132.18 6.19733 132.303 6.46933 132.303 6.8C132.303 7.152 132.18 7.45067 131.935 7.696C131.7 7.93067 131.396 8.048 131.023 8.048ZM139.776 17.536C139.541 17.728 139.253 17.872 138.912 17.968C138.581 18.064 138.229 18.112 137.856 18.112C136.917 18.112 136.192 17.8667 135.68 17.376C135.168 16.8853 134.912 16.1707 134.912 15.232V11.12H133.504V9.52H134.912V7.568H136.912V9.52H139.2V11.12H136.912V15.184C136.912 15.6 137.013 15.92 137.216 16.144C137.419 16.3573 137.712 16.464 138.096 16.464C138.544 16.464 138.917 16.3467 139.216 16.112L139.776 17.536ZM146.269 9.36C147.347 9.36 148.211 9.67467 148.861 10.304C149.512 10.9333 149.837 11.8667 149.837 13.104V18H147.837V13.36C147.837 12.6133 147.661 12.0533 147.309 11.68C146.957 11.296 146.456 11.104 145.805 11.104C145.069 11.104 144.488 11.328 144.061 11.776C143.635 12.2133 143.421 12.848 143.421 13.68V18H141.421V6.128H143.421V10.448C143.752 10.096 144.157 9.82933 144.637 9.648C145.128 9.456 145.672 9.36 146.269 9.36Z" fill="white"/>
<path d="M68.048 27.36C68.88 27.36 69.6213 27.5413 70.272 27.904C70.9333 28.2667 71.4507 28.7787 71.824 29.44C72.1973 30.1013 72.384 30.864 72.384 31.728C72.384 32.592 72.1973 33.36 71.824 34.032C71.4507 34.6933 70.9333 35.2053 70.272 35.568C69.6213 35.9307 68.88 36.112 68.048 36.112C67.4613 36.112 66.9227 36.0107 66.432 35.808C65.952 35.6053 65.5467 35.3013 65.216 34.896V36H63.312V24.128H65.312V28.496C65.6533 28.1227 66.0533 27.84 66.512 27.648C66.9813 27.456 67.4933 27.36 68.048 27.36ZM67.824 34.4C68.56 34.4 69.1627 34.1547 69.632 33.664C70.112 33.1733 70.352 32.528 70.352 31.728C70.352 30.928 70.112 30.2827 69.632 29.792C69.1627 29.3013 68.56 29.056 67.824 29.056C67.344 29.056 66.912 29.168 66.528 29.392C66.144 29.6053 65.84 29.9147 65.616 30.32C65.392 30.7253 65.28 31.1947 65.28 31.728C65.28 32.2613 65.392 32.7307 65.616 33.136C65.84 33.5413 66.144 33.856 66.528 34.08C66.912 34.2933 67.344 34.4 67.824 34.4ZM82.0464 27.456L78.0464 36.688C77.673 37.616 77.2197 38.2667 76.6864 38.64C76.153 39.024 75.5077 39.216 74.7504 39.216C74.3237 39.216 73.9024 39.1467 73.4864 39.008C73.0704 38.8693 72.729 38.6773 72.4624 38.432L73.2624 36.96C73.4544 37.1413 73.6784 37.2853 73.9344 37.392C74.201 37.4987 74.4677 37.552 74.7344 37.552C75.0864 37.552 75.3744 37.4613 75.5984 37.28C75.833 37.0987 76.0464 36.7947 76.2384 36.368L76.3824 36.032L72.6544 27.456H74.7344L77.4224 33.776L80.1264 27.456H82.0464ZM89.2703 24.8L91.9103 28.544L94.5503 24.8H96.9823L93.2223 30.176L97.2863 36H94.8223L91.9103 31.92L89.0143 36H86.6143L90.6623 30.256L86.8703 24.8H89.2703ZM101.747 27.36C103.005 27.36 103.965 27.664 104.627 28.272C105.299 28.8693 105.635 29.776 105.635 30.992V36H103.747V34.96C103.501 35.3333 103.149 35.6213 102.691 35.824C102.243 36.016 101.699 36.112 101.059 36.112C100.419 36.112 99.8588 36.0053 99.3788 35.792C98.8988 35.568 98.5254 35.264 98.2588 34.88C98.0028 34.4853 97.8748 34.0427 97.8748 33.552C97.8748 32.784 98.1574 32.1707 98.7228 31.712C99.2988 31.2427 100.2 31.008 101.427 31.008H103.635V30.88C103.635 30.2827 103.453 29.824 103.091 29.504C102.739 29.184 102.211 29.024 101.507 29.024C101.027 29.024 100.552 29.0987 100.083 29.248C99.6241 29.3973 99.2348 29.6053 98.9148 29.872L98.1308 28.416C98.5788 28.0747 99.1174 27.8133 99.7468 27.632C100.376 27.4507 101.043 27.36 101.747 27.36ZM101.475 34.656C101.976 34.656 102.419 34.544 102.803 34.32C103.197 34.0853 103.475 33.7547 103.635 33.328V32.336H101.571C100.419 32.336 99.8428 32.7147 99.8428 33.472C99.8428 33.8347 99.9868 34.1227 100.275 34.336C100.563 34.5493 100.963 34.656 101.475 34.656ZM111.662 32.576H110.11V36H108.11V27.456H110.11V30.912H111.71L114.238 27.456H116.382L113.278 31.568L116.59 36H114.238L111.662 32.576ZM125.719 31.776C125.719 31.9147 125.708 32.112 125.687 32.368H118.983C119.1 32.9973 119.404 33.4987 119.895 33.872C120.396 34.2347 121.015 34.416 121.751 34.416C122.69 34.416 123.463 34.1067 124.071 33.488L125.143 34.72C124.759 35.1787 124.274 35.5253 123.687 35.76C123.1 35.9947 122.439 36.112 121.703 36.112C120.764 36.112 119.938 35.9253 119.223 35.552C118.508 35.1787 117.954 34.6613 117.559 34C117.175 33.328 116.983 32.5707 116.983 31.728C116.983 30.896 117.17 30.1493 117.543 29.488C117.927 28.816 118.455 28.2933 119.127 27.92C119.799 27.5467 120.556 27.36 121.399 27.36C122.231 27.36 122.972 27.5467 123.623 27.92C124.284 28.2827 124.796 28.8 125.159 29.472C125.532 30.1333 125.719 30.9013 125.719 31.776ZM121.399 28.96C120.759 28.96 120.215 29.152 119.767 29.536C119.33 29.9093 119.063 30.4107 118.967 31.04H123.815C123.73 30.4213 123.468 29.92 123.031 29.536C122.594 29.152 122.05 28.96 121.399 28.96ZM132.643 27.36C133.475 27.36 134.216 27.5413 134.867 27.904C135.528 28.2667 136.045 28.7787 136.419 29.44C136.792 30.1013 136.979 30.864 136.979 31.728C136.979 32.592 136.792 33.36 136.419 34.032C136.045 34.6933 135.528 35.2053 134.867 35.568C134.216 35.9307 133.475 36.112 132.643 36.112C131.491 36.112 130.579 35.728 129.907 34.96V39.104H127.907V27.456H129.811V28.576C130.141 28.1707 130.547 27.8667 131.027 27.664C131.517 27.4613 132.056 27.36 132.643 27.36ZM132.419 34.4C133.155 34.4 133.757 34.1547 134.227 33.664C134.707 33.1733 134.947 32.528 134.947 31.728C134.947 30.928 134.707 30.2827 134.227 29.792C133.757 29.3013 133.155 29.056 132.419 29.056C131.939 29.056 131.507 29.168 131.123 29.392C130.739 29.6053 130.435 29.9147 130.211 30.32C129.987 30.7253 129.875 31.1947 129.875 31.728C129.875 32.2613 129.987 32.7307 130.211 33.136C130.435 33.5413 130.739 33.856 131.123 34.08C131.507 34.2933 131.939 34.4 132.419 34.4ZM147.995 34.304V37.904H146.123V36H139.531V37.904H137.675V34.304H138.075C138.619 34.2827 138.987 33.936 139.179 33.264C139.382 32.5813 139.515 31.6213 139.579 30.384L139.691 27.456H146.731V34.304H147.995ZM141.403 30.528C141.361 31.5093 141.281 32.3093 141.163 32.928C141.046 33.5467 140.833 34.0053 140.523 34.304H144.731V29.152H141.451L141.403 30.528ZM153.59 36.112C152.726 36.112 151.947 35.9253 151.254 35.552C150.56 35.1787 150.016 34.6613 149.622 34C149.238 33.328 149.046 32.5707 149.046 31.728C149.046 30.8853 149.238 30.1333 149.622 29.472C150.016 28.8107 150.56 28.2933 151.254 27.92C151.947 27.5467 152.726 27.36 153.59 27.36C154.464 27.36 155.248 27.5467 155.942 27.92C156.635 28.2933 157.174 28.8107 157.558 29.472C157.952 30.1333 158.15 30.8853 158.15 31.728C158.15 32.5707 157.952 33.328 157.558 34C157.174 34.6613 156.635 35.1787 155.942 35.552C155.248 35.9253 154.464 36.112 153.59 36.112ZM153.59 34.4C154.326 34.4 154.934 34.1547 155.414 33.664C155.894 33.1733 156.134 32.528 156.134 31.728C156.134 30.928 155.894 30.2827 155.414 29.792C154.934 29.3013 154.326 29.056 153.59 29.056C152.854 29.056 152.246 29.3013 151.766 29.792C151.296 30.2827 151.062 30.928 151.062 31.728C151.062 32.528 151.296 33.1733 151.766 33.664C152.246 34.1547 152.854 34.4 153.59 34.4ZM168.525 36V30.336L165.645 35.104H164.781L161.949 30.32V36H160.125V27.456H162.221L165.261 32.8L168.445 27.456H170.317L170.333 36H168.525Z" fill="white"/>
<path d="M160.17 6.70517C160.581 6.71706 160.98 6.78531 161.366 6.91002H161.404C161.43 6.92181 161.45 6.93484 161.463 6.94663C161.607 6.99068 161.744 7.04032 161.875 7.10857L162.123 7.21405C162.221 7.26369 162.338 7.35614 162.404 7.39398C162.469 7.43059 162.541 7.46844 162.599 7.51125C163.325 6.98448 164.206 6.69907 165.114 6.70517C165.526 6.70517 165.938 6.76049 166.329 6.88521C168.739 7.62976 169.608 10.1426 168.882 12.3391C168.471 13.4615 167.798 14.4858 166.917 15.3228C165.656 16.4831 164.272 17.5131 162.782 18.4003L162.619 18.494L162.449 18.3941C160.954 17.5131 159.563 16.4831 158.29 15.3166C157.414 14.4796 156.741 13.4615 156.323 12.3391C155.585 10.1426 156.454 7.62976 158.89 6.87218C159.08 6.81013 159.275 6.7667 159.471 6.7425H159.549C159.733 6.71706 159.915 6.70517 160.098 6.70517H160.17ZM165.989 8.66593C165.721 8.57844 165.427 8.71556 165.329 8.97616C165.238 9.23675 165.382 9.52216 165.656 9.61461C166.075 9.76352 166.355 10.155 166.355 10.5887V10.608C166.342 10.7501 166.387 10.8872 166.479 10.9927C166.57 11.0981 166.708 11.1596 166.851 11.1726C167.119 11.1658 167.348 10.9616 167.367 10.7004V10.6266C167.387 9.75732 166.832 8.96995 165.989 8.66593Z" fill="white"/>
<path fill-rule="evenodd" clip-rule="evenodd" d="M24.0428 40.9219C18.3728 38.2217 11.4217 37.1731 7.03292 29.6232C9.10463 26.5822 10.304 22.8072 10.304 18.6914C10.304 15.0213 9.32271 11.6133 7.63263 8.75587L9.10463 7.15674C13.3298 9.04424 18.4819 10.1715 24.0428 10.1715C29.6037 10.1715 34.7557 9.04424 38.9536 7.15674L40.4257 8.75587C38.7356 11.6133 37.7542 15.0213 37.7542 18.6914C37.7542 22.781 38.9809 26.5822 41.0254 29.6232C36.6911 37.1731 29.7127 38.1955 24.0428 40.9219ZM12.1849 32.4806L14.2567 31.8777C14.4475 31.8252 14.6383 31.7204 14.7746 31.5893C14.9109 31.4582 14.9654 31.2747 14.9654 31.065V15.8864C14.9654 15.6767 14.9109 15.4932 14.7746 15.3621C14.6383 15.231 14.4747 15.1262 14.2567 15.0737L12.1849 14.497V13.5532H22.3527V14.497L20.3082 15.0737C20.0902 15.1262 19.9266 15.231 19.7903 15.3883C19.654 15.5456 19.5722 15.7029 19.5722 15.9126V22.2567H28.5406V15.9126C28.5406 15.7029 28.4588 15.5456 28.3225 15.3883C28.1862 15.2572 28.0226 15.1524 27.8046 15.0999L25.7601 14.5232V13.5795H35.9279V14.5232L33.8561 15.0999C33.6653 15.1524 33.5018 15.231 33.3655 15.3883C33.2292 15.5456 33.1474 15.7029 33.1474 15.9126V31.0912C33.1474 31.3009 33.2292 31.4844 33.3655 31.6155C33.5018 31.7466 33.6653 31.8514 33.8561 31.9039L35.9279 32.5068V33.4244H25.7601V32.5068L27.8046 31.9039C28.0226 31.8514 28.1862 31.7466 28.3225 31.6155C28.4588 31.4582 28.5406 31.3009 28.5406 31.0912V23.9607H19.5722V31.0912C19.5722 31.3009 19.654 31.4844 19.7903 31.6155C19.9266 31.7466 20.1174 31.8514 20.3082 31.9039L22.3527 32.5068V33.4244H12.1849V32.4806ZM24.0428 48C17.3642 41.3676 4.93395 43.2026 0 28.3124C2.7532 26.2414 4.57958 22.7023 4.57958 18.6914C4.57958 14.8378 2.88949 11.4036 0.327113 9.30639L0.599706 6.78973L7.49633 0.183506L10.7947 0C13.6842 2.5953 18.6182 4.37794 24.0973 4.37794C29.5764 4.37794 34.5104 2.5953 37.3999 0L40.6982 0.183506L47.5949 6.78973L47.8675 9.30639C45.2778 11.4036 43.5877 14.8378 43.5877 18.6914C43.5877 22.7023 45.4141 26.2414 48.1673 28.3124C43.2061 43.2026 30.7486 41.3676 24.0428 48Z" fill="white"/>
</svg>
