<svg width="512" height="506" viewBox="0 0 512 506" fill="none" xmlns="http://www.w3.org/2000/svg">
  <ellipse cx="254.759" cy="235.632" rx="85.0349" ry="85.6323" fill="url(#paint0_linear)"/>
  <g filter="url(#filter0_f)">
    <circle cx="255" cy="253" r="103" fill="url(#paint1_linear)"/>
    <circle cx="255" cy="253" r="102.5" stroke="white"/>
  </g>
  <mask id="mask0" mask-type="alpha" maskUnits="userSpaceOnUse" x="169" y="150" width="171" height="172">
    <ellipse cx="254.759" cy="235.632" rx="85.0349" ry="85.6323" fill="url(#paint2_linear)"/>
  </mask>
  <g mask="url(#mask0)">
    <g filter="url(#filter1_f)">
      <circle cx="255" cy="253" r="103" fill="url(#paint3_linear)"/>
      <circle cx="255" cy="253" r="102.5" stroke="white"/>
    </g>
  </g>
  <path fill-rule="evenodd" clip-rule="evenodd" d="M505.676 157.757L512 131.486H490.678C468.814 131.486 469.175 125.188 451.287 126.088C433.037 126.988 426.08 134.185 426.08 134.185L419.846 176.021C419.846 176.021 433.669 167.024 451.287 169.003C468.904 170.983 461.315 176.021 481.372 178.36C488.239 179.17 493.931 176.741 497.725 174.402L485.257 232.882C484.625 232.882 484.083 232.882 483.45 232.882L461.225 234.951L449.118 212.189C450.112 212.099 451.106 212.009 452.1 211.829C462.941 209.49 469.898 198.873 467.549 187.987C465.2 177.191 454.539 170.353 443.698 172.692C432.856 174.941 425.899 185.648 428.248 196.444C429.152 200.403 431.139 203.912 433.94 206.611L406.113 213.358C403.583 213.988 401.415 215.698 400.241 218.127L388.405 242.598C386.237 247.007 388.134 252.225 392.561 254.384C396.988 256.454 402.319 254.654 404.397 250.246L414.425 229.553L427.345 226.404L419.575 256.544L411.895 277.776L393.193 270.309C388.857 268.6 383.797 270.579 381.81 274.807L376.841 285.784C374.763 290.192 376.66 295.41 381.177 297.48C382.352 298.02 383.617 298.289 384.882 298.289C388.224 298.289 391.477 296.4 392.922 293.161L394.458 289.922L413.793 297.66C416.051 298.559 418.581 298.469 420.749 297.48C422.918 296.49 424.634 294.691 425.447 292.441L431.591 275.617L444.691 289.023L453.545 319.612C454.63 323.391 458.153 326 462.128 326H468.904C473.783 326 477.758 322.041 477.758 317.183C477.758 312.235 473.783 308.276 468.904 308.276H468.814L461.134 282.005C460.773 280.565 459.96 279.306 458.966 278.226L438.548 257.353L443.336 239.09L448.305 248.536C450.022 251.685 453.455 253.485 457.069 253.125L481.463 250.875L480.559 254.834L484.805 255.734L485.98 250.336C490.407 249.526 493.569 245.387 493.117 240.889C492.846 238.19 491.401 235.941 489.413 234.501L505.766 157.757H505.676L505.676 157.757Z" fill="white"/>
  <path d="M26.88 261.136H40.432L53.312 282.528C55.104 285.552 58.24 287.12 61.6 287.12C66.976 287.12 71.568 282.416 71.568 277.152C71.568 275.472 71.12 273.904 70.224 272.448L60.144 256.432C61.152 255.76 62.16 254.976 63.168 254.08C69.104 248.704 71.568 241.984 71.568 235.264C71.568 227.2 68.432 219.696 62.72 215.216C57.68 211.296 50.624 209.728 43.12 209.728H17.024C11.536 209.728 7.168 213.984 7.168 219.36V277.6C7.168 282.864 11.536 287.12 17.024 287.12C22.288 287.12 26.88 282.864 26.88 277.6V261.136ZM41.776 226.416C44.128 226.416 46.592 226.976 48.384 228.32C50.4 229.776 51.52 232.128 51.52 235.488C51.52 238.96 50.176 241.424 48.048 242.88C46.256 244 43.904 244.56 41.552 244.56H26.88V226.416H41.776ZM78.6704 263.488C78.6704 270.208 80.4624 275.36 83.5984 279.056C88.3024 284.656 95.9184 287.12 105.102 287.12C114.286 287.12 121.902 284.656 126.606 279.056C129.742 275.36 131.534 270.208 131.534 263.488V242.096C131.534 237.28 127.502 233.36 122.462 233.36C117.422 233.36 113.39 237.28 113.39 242.096V262.928C113.39 264.944 113.054 266.848 112.27 268.416C111.038 270.768 108.798 272.336 105.102 272.336C101.406 272.336 99.1664 270.768 97.9344 268.416C97.1504 266.848 96.8144 264.944 96.8144 262.928V242.096C96.8144 237.28 92.7824 233.36 87.7424 233.36C82.7024 233.36 78.6704 237.28 78.6704 242.096V263.488ZM206.924 219.92C206.924 215.552 204.012 212.64 199.756 211.184C194.828 209.504 189.9 208.72 183.068 208.72C160.892 208.72 141.628 225.184 141.628 247.808C141.628 272 158.876 287.12 182.844 287.12C189.676 287.12 195.836 286 200.876 284.208C204.796 282.752 208.268 279.728 208.268 275.36C208.268 270.096 204.124 266.176 199.084 266.176C196.732 266.176 194.268 267.296 190.684 268.192C188.556 268.752 185.868 269.2 182.62 269.2C170.86 269.2 162.236 260.24 162.236 247.808C162.236 235.264 171.532 226.416 182.62 226.416C185.98 226.416 188.332 226.752 190.348 227.312C193.484 228.096 195.388 229.104 197.74 229.104C202.78 229.104 206.924 225.296 206.924 219.92ZM272.886 227.2C277.59 227.2 281.398 223.28 281.398 218.464C281.398 213.76 277.59 209.728 272.886 209.728H220.918C216.214 209.728 212.406 213.76 212.406 218.464C212.406 223.28 216.214 227.2 220.918 227.2H237.046V277.6C237.046 282.864 241.526 287.12 246.902 287.12C252.166 287.12 256.758 282.864 256.758 277.6V227.2H272.886ZM298.446 209.728C293.07 209.728 288.59 213.984 288.59 219.248V277.6C288.59 282.864 293.07 287.12 298.446 287.12C303.71 287.12 308.302 282.864 308.302 277.6V256.32H333.166C337.87 256.32 341.678 252.4 341.678 247.584C341.678 242.88 337.87 238.848 333.166 238.848H308.302V227.2H337.982C342.686 227.2 346.494 223.28 346.494 218.464C346.494 213.76 342.686 209.728 337.982 209.728H298.446Z" fill="white"/>
  <defs>
    <filter id="filter0_f" x="2" y="0" width="506" height="506" filterUnits="userSpaceOnUse" color-interpolation-filters="sRGB">
      <feFlood flood-opacity="0" result="BackgroundImageFix"/>
      <feBlend mode="normal" in="SourceGraphic" in2="BackgroundImageFix" result="shape"/>
      <feGaussianBlur stdDeviation="75" result="effect1_foregroundBlur"/>
    </filter>
    <filter id="filter1_f" x="2" y="0" width="506" height="506" filterUnits="userSpaceOnUse" color-interpolation-filters="sRGB">
      <feFlood flood-opacity="0" result="BackgroundImageFix"/>
      <feBlend mode="normal" in="SourceGraphic" in2="BackgroundImageFix" result="shape"/>
      <feGaussianBlur stdDeviation="75" result="effect1_foregroundBlur"/>
    </filter>
    <linearGradient id="paint0_linear" x1="254.759" y1="150" x2="255.002" y2="232.255" gradientUnits="userSpaceOnUse">
      <stop stop-color="#BD0000"/>
      <stop offset="1" stop-color="#BD0000" stop-opacity="0"/>
    </linearGradient>
    <linearGradient id="paint1_linear" x1="255" y1="150" x2="255" y2="308.352" gradientUnits="userSpaceOnUse">
      <stop stop-color="#BD0000"/>
      <stop offset="1" stop-color="#BD0000" stop-opacity="0"/>
    </linearGradient>
    <linearGradient id="paint2_linear" x1="254.759" y1="150" x2="255.002" y2="232.255" gradientUnits="userSpaceOnUse">
      <stop stop-color="#BD0000"/>
      <stop offset="1" stop-color="#BD0000" stop-opacity="0"/>
    </linearGradient>
    <linearGradient id="paint3_linear" x1="255" y1="150" x2="255" y2="308.352" gradientUnits="userSpaceOnUse">
      <stop stop-color="#870000"/>
      <stop offset="1" stop-color="#870000" stop-opacity="0"/>
    </linearGradient>
  </defs>
</svg>
