<svg width="726" height="606" viewBox="0 0 726 606" fill="none" xmlns="http://www.w3.org/2000/svg">
  <ellipse cx="362.644" cy="277.201" rx="126.314" ry="127.201" fill="url(#paint0_linear)"/>
  <g filter="url(#filter0_f)">
    <circle cx="363" cy="303" r="153" fill="url(#paint1_linear)"/>
    <circle cx="363" cy="303" r="152.5" stroke="white"/>
  </g>
  <mask id="mask0" mask-type="alpha" maskUnits="userSpaceOnUse" x="236" y="150" width="253" height="255">
    <ellipse cx="362.644" cy="277.201" rx="126.314" ry="127.201" fill="url(#paint2_linear)"/>
  </mask>
  <g mask="url(#mask0)">
    <g filter="url(#filter1_f)">
      <circle cx="363" cy="303" r="153" fill="url(#paint3_linear)"/>
      <circle cx="363" cy="303" r="152.5" stroke="white"/>
    </g>
  </g>
  <path fill-rule="evenodd" clip-rule="evenodd" d="M717.444 162.19L726 126.461H697.153C667.572 126.461 668.061 117.896 643.859 119.12C619.167 120.343 609.755 130.132 609.755 130.132L601.321 187.029C601.321 187.029 620.023 174.793 643.859 177.485C667.694 180.177 657.426 187.029 684.562 190.21C693.852 191.311 701.553 188.007 706.687 184.826L689.819 264.359C688.963 264.359 688.23 264.359 687.374 264.359L657.304 267.173L640.925 236.217C642.269 236.094 643.614 235.972 644.959 235.727C659.627 232.546 669.039 218.108 665.861 203.302C662.683 188.619 648.259 179.32 633.591 182.501C618.923 185.56 609.511 200.121 612.689 214.804C613.911 220.188 616.6 224.96 620.389 228.631L582.741 237.807C579.319 238.664 576.385 240.989 574.796 244.292L558.783 277.574C555.85 283.569 558.417 290.666 564.406 293.603C570.396 296.417 577.607 293.97 580.419 287.974L593.987 259.832L611.466 255.549L600.954 296.539L590.564 325.416L565.262 315.26C559.395 312.935 552.549 315.627 549.86 321.378L543.137 336.306C540.326 342.301 542.893 349.398 549.005 352.212C550.594 352.947 552.305 353.314 554.016 353.314C558.539 353.314 562.939 350.744 564.895 346.339L566.973 341.934L593.131 352.457C596.187 353.681 599.61 353.558 602.543 352.212C605.477 350.866 607.799 348.419 608.899 345.36L617.211 322.479L634.935 340.711L646.914 382.313C648.381 387.452 653.148 391 658.527 391H667.694C674.295 391 679.673 385.616 679.673 379.009C679.673 372.279 674.295 366.895 667.694 366.895H667.572L657.182 331.167C656.693 329.209 655.593 327.496 654.248 326.028L626.623 297.641L633.102 272.802L639.825 285.649C642.147 289.932 646.792 292.379 651.681 291.89L684.685 288.831L683.462 294.214L689.207 295.438L690.796 288.097C696.786 286.995 701.064 281.367 700.453 275.249C700.086 271.578 698.131 268.519 695.441 266.561L717.566 162.19H717.443L717.444 162.19Z" fill="white"/>
  <path d="M40.32 303.704H60.648L79.968 335.792C82.656 340.328 87.36 342.68 92.4 342.68C100.464 342.68 107.352 335.624 107.352 327.728C107.352 325.208 106.68 322.856 105.336 320.672L90.216 296.648C91.728 295.64 93.24 294.464 94.752 293.12C103.656 285.056 107.352 274.976 107.352 264.896C107.352 252.8 102.648 241.544 94.08 234.824C86.52 228.944 75.936 226.592 64.68 226.592H25.536C17.304 226.592 10.752 232.976 10.752 241.04V328.4C10.752 336.296 17.304 342.68 25.536 342.68C33.432 342.68 40.32 336.296 40.32 328.4V303.704ZM62.664 251.624C66.192 251.624 69.888 252.464 72.576 254.48C75.6 256.664 77.28 260.192 77.28 265.232C77.28 270.44 75.264 274.136 72.072 276.32C69.384 278 65.856 278.84 62.328 278.84H40.32V251.624H62.664ZM118.006 307.232C118.006 317.312 120.694 325.04 125.398 330.584C132.454 338.984 143.878 342.68 157.654 342.68C171.43 342.68 182.854 338.984 189.91 330.584C194.614 325.04 197.302 317.312 197.302 307.232V275.144C197.302 267.92 191.254 262.04 183.694 262.04C176.134 262.04 170.086 267.92 170.086 275.144V306.392C170.086 309.416 169.582 312.272 168.406 314.624C166.558 318.152 163.198 320.504 157.654 320.504C152.11 320.504 148.75 318.152 146.902 314.624C145.726 312.272 145.222 309.416 145.222 306.392V275.144C145.222 267.92 139.174 262.04 131.614 262.04C124.054 262.04 118.006 267.92 118.006 275.144V307.232ZM310.387 241.88C310.387 235.328 306.019 230.96 299.635 228.776C292.243 226.256 284.851 225.08 274.603 225.08C241.339 225.08 212.443 249.776 212.443 283.712C212.443 320 238.315 342.68 274.267 342.68C284.515 342.68 293.755 341 301.315 338.312C307.195 336.128 312.403 331.592 312.403 325.04C312.403 317.144 306.187 311.264 298.627 311.264C295.099 311.264 291.403 312.944 286.027 314.288C282.835 315.128 278.803 315.8 273.931 315.8C256.291 315.8 243.355 302.36 243.355 283.712C243.355 264.896 257.299 251.624 273.931 251.624C278.971 251.624 282.499 252.128 285.523 252.968C290.227 254.144 293.083 255.656 296.611 255.656C304.171 255.656 310.387 249.944 310.387 241.88ZM409.329 252.8C416.385 252.8 422.097 246.92 422.097 239.696C422.097 232.64 416.385 226.592 409.329 226.592H331.377C324.321 226.592 318.609 232.64 318.609 239.696C318.609 246.92 324.321 252.8 331.377 252.8H355.569V328.4C355.569 336.296 362.289 342.68 370.353 342.68C378.249 342.68 385.137 336.296 385.137 328.4V252.8H409.329ZM447.669 226.592C439.605 226.592 432.885 232.976 432.885 240.872V328.4C432.885 336.296 439.605 342.68 447.669 342.68C455.565 342.68 462.453 336.296 462.453 328.4V296.48H499.749C506.805 296.48 512.517 290.6 512.517 283.376C512.517 276.32 506.805 270.272 499.749 270.272H462.453V252.8H506.973C514.029 252.8 519.741 246.92 519.741 239.696C519.741 232.64 514.029 226.592 506.973 226.592H447.669Z" fill="white"/>
  <path fill-rule="evenodd" clip-rule="evenodd" d="M132 229C124.82 229 119 234.82 119 242C119 249.18 124.82 255 132 255H185C192.18 255 198 249.18 198 242C198 234.82 192.18 229 185 229H132ZM137.672 244.864C137.144 245.272 136.928 245.728 136.928 246.352H142.232C143.216 246.352 144.008 247.192 144.008 248.176C144.008 249.184 143.216 250 142.232 250H134.144C133.16 250 132.392 249.304 132.392 248.104C132.392 245.752 132.944 244.216 134.312 242.896C135.221 242.026 136.236 241.507 137.174 241.027C137.968 240.621 138.708 240.243 139.28 239.704C139.664 239.32 139.856 238.888 139.856 238.336C139.856 238.048 139.808 237.64 139.424 237.304C139.16 237.064 138.776 236.944 138.152 236.944C137.408 236.944 136.856 237.184 136.376 237.472C136.222 237.56 136.076 237.653 135.933 237.744C135.45 238.05 135 238.336 134.408 238.336C133.376 238.336 132.584 237.664 132.584 236.512C132.584 235.432 133.496 234.712 134.672 234.184C135.944 233.608 137.048 233.44 138.512 233.44C140.24 233.44 141.68 234.064 142.616 235.072C143.384 235.888 143.816 236.992 143.816 238.216C143.816 239.68 143.288 240.928 142.304 241.912C141.363 242.853 140.354 243.362 139.423 243.832C138.788 244.153 138.188 244.455 137.672 244.864ZM152.591 233.416C156.647 233.416 158.855 236.296 158.855 241.84C158.855 247.36 156.647 250.24 152.591 250.24C148.535 250.24 146.327 247.36 146.327 241.84C146.327 236.296 148.535 233.416 152.591 233.416ZM154.103 245.392C154.487 244.624 154.655 243.448 154.655 241.84C154.655 240.256 154.487 239.056 154.103 238.288C153.767 237.616 153.287 237.28 152.591 237.28C151.943 237.28 151.439 237.64 151.103 238.288C150.695 239.056 150.479 240.28 150.479 241.84C150.479 243.424 150.671 244.624 151.079 245.392C151.415 246.04 151.895 246.376 152.591 246.376C153.263 246.376 153.767 246.04 154.103 245.392ZM166.453 244.864C165.925 245.272 165.709 245.728 165.709 246.352H171.013C171.997 246.352 172.789 247.192 172.789 248.176C172.789 249.184 171.997 250 171.013 250H162.925C161.941 250 161.173 249.304 161.173 248.104C161.173 245.752 161.725 244.216 163.093 242.896C164.003 242.026 165.017 241.507 165.955 241.027C166.75 240.621 167.489 240.243 168.061 239.704C168.445 239.32 168.637 238.888 168.637 238.336C168.637 238.048 168.589 237.64 168.205 237.304C167.941 237.064 167.557 236.944 166.933 236.944C166.189 236.944 165.637 237.184 165.157 237.472C165.004 237.56 164.857 237.653 164.714 237.744C164.231 238.05 163.782 238.336 163.189 238.336C162.157 238.336 161.365 237.664 161.365 236.512C161.365 235.432 162.277 234.712 163.453 234.184C164.725 233.608 165.829 233.44 167.293 233.44C169.021 233.44 170.461 234.064 171.397 235.072C172.165 235.888 172.597 236.992 172.597 238.216C172.597 239.68 172.069 240.928 171.085 241.912C170.144 242.853 169.135 243.362 168.205 243.832C167.569 244.153 166.97 244.455 166.453 244.864ZM184.084 235.48V246.352H186.412C187.396 246.352 188.164 247.216 188.164 248.176C188.164 249.184 187.396 250 186.412 250H177.268C176.284 250 175.492 249.184 175.492 248.176C175.492 247.216 176.284 246.352 177.268 246.352H179.86V237.856L177.796 238.528C177.628 238.576 177.436 238.6 177.268 238.6C176.332 238.6 175.444 237.976 175.444 236.776C175.444 235.984 175.924 235.288 176.644 235.048L180.964 233.656C181.252 233.56 181.684 233.44 182.26 233.44C183.556 233.44 184.084 234.376 184.084 235.48Z" fill="#B99579"/>
  <defs>
    <filter id="filter0_f" x="60" y="0" width="606" height="606" filterUnits="userSpaceOnUse" color-interpolation-filters="sRGB">
      <feFlood flood-opacity="0" result="BackgroundImageFix"/>
      <feBlend mode="normal" in="SourceGraphic" in2="BackgroundImageFix" result="shape"/>
      <feGaussianBlur stdDeviation="75" result="effect1_foregroundBlur"/>
    </filter>
    <filter id="filter1_f" x="60" y="0" width="606" height="606" filterUnits="userSpaceOnUse" color-interpolation-filters="sRGB">
      <feFlood flood-opacity="0" result="BackgroundImageFix"/>
      <feBlend mode="normal" in="SourceGraphic" in2="BackgroundImageFix" result="shape"/>
      <feGaussianBlur stdDeviation="75" result="effect1_foregroundBlur"/>
    </filter>
    <linearGradient id="paint0_linear" x1="362.644" y1="150" x2="363.005" y2="272.185" gradientUnits="userSpaceOnUse">
      <stop stop-color="#BD0000"/>
      <stop offset="1" stop-color="#BD0000" stop-opacity="0"/>
    </linearGradient>
    <linearGradient id="paint1_linear" x1="363" y1="150" x2="363" y2="385.222" gradientUnits="userSpaceOnUse">
      <stop stop-color="#BD0000"/>
      <stop offset="1" stop-color="#BD0000" stop-opacity="0"/>
    </linearGradient>
    <linearGradient id="paint2_linear" x1="362.644" y1="150" x2="363.005" y2="272.185" gradientUnits="userSpaceOnUse">
      <stop stop-color="#BD0000"/>
      <stop offset="1" stop-color="#BD0000" stop-opacity="0"/>
    </linearGradient>
    <linearGradient id="paint3_linear" x1="363" y1="150" x2="363" y2="385.222" gradientUnits="userSpaceOnUse">
      <stop stop-color="#870000"/>
      <stop offset="1" stop-color="#870000" stop-opacity="0"/>
    </linearGradient>
  </defs>
</svg>
