<svg width="24" height="24" viewBox="0 0 24 24" fill="none" xmlns="http://www.w3.org/2000/svg">
<path fill-rule="evenodd" clip-rule="evenodd" d="M6 0C2.68629 0 0 2.68629 0 6V18C0 21.3137 2.68629 24 6 24H18C21.3137 24 24 21.3137 24 18V6C24 2.68629 21.3137 0 18 0H6ZM7.46892 13.0736L3.71637 11.719C3.33522 11.5809 3.33191 11.0604 3.71197 10.9187L19.1126 5.17249C19.4391 5.05037 19.7759 5.32702 19.7048 5.65864L16.9411 18.5166C16.8759 18.8202 16.5079 18.9579 16.2482 18.7753L12.4754 16.126C12.2463 15.9651 11.934 15.9738 11.7147 16.1465L9.62299 17.7958C9.38017 17.9878 9.01433 17.8809 8.9214 17.5915L7.46892 13.0736ZM16.0212 7.98376L8.68732 12.3525C8.40622 12.5203 8.27388 12.8487 8.36469 13.156L9.15765 15.8508C9.21394 16.0418 9.50052 16.0222 9.52782 15.8249L9.734 14.3471C9.77287 14.0689 9.9101 13.8125 10.1228 13.621L16.1754 8.1794C16.2886 8.07785 16.153 7.90548 16.0212 7.98376Z" fill="#fff"/>
</svg>
