<svg width="24" height="24" viewBox="0 0 24 24" fill="none" xmlns="http://www.w3.org/2000/svg">
<path fill-rule="evenodd" clip-rule="evenodd" d="M6 0C2.68629 0 0 2.68629 0 6V18C0 21.3137 2.68629 24 6 24H18C21.3137 24 24 21.3137 24 18V6C24 2.68629 21.3137 0 18 0H6ZM19.3391 8.36096C19.1373 9.34363 17.1039 12.3361 17.1039 12.3361C16.9148 12.6453 16.8341 12.8136 17.1016 13.1107C17.1767 13.211 17.3154 13.358 17.4781 13.5305C17.7251 13.7922 18.0274 14.1124 18.2463 14.4169C19.135 15.4008 19.7137 16.2295 19.7137 16.6926C19.7137 17.0438 19.5247 17.1424 19.3229 17.1424H17.3436C16.9204 17.1424 16.74 16.931 16.332 16.4529C16.1176 16.2017 15.8405 15.8769 15.4324 15.4706C14.4329 14.4422 14.0052 14.3604 13.7632 14.3604C13.5476 14.3604 13.4 14.5288 13.4 14.9221V16.4953C13.4 16.9584 13.1441 17.1412 12.094 17.1412C10.3706 17.1412 8.45816 16.0311 7.00452 13.9803C4.83733 10.9325 4.28516 8.65684 4.28516 8.16491C4.28516 7.89789 4.47306 7.71507 4.72897 7.71507H6.4927C6.95034 7.71507 7.12556 7.8558 7.28695 8.36096C8.09503 10.8339 9.53484 13.0109 10.1412 13.0109C10.3706 13.0109 10.3971 12.8136 10.3971 12.3085V9.79347C10.3971 9.03468 10.1419 8.70887 9.949 8.46265C9.83186 8.31312 9.73772 8.19295 9.73772 8.02298C9.73772 7.84497 9.8726 7.71387 10.0882 7.71387H12.9159C13.2928 7.71387 13.347 7.85459 13.347 8.3321V11.7456C13.347 12.1353 13.4231 12.2796 13.5891 12.2796C13.7954 12.2796 13.9845 12.1497 14.3568 11.7179C15.5177 10.3828 16.471 8.26233 16.471 8.26233C16.592 7.99532 16.7408 7.8125 17.1442 7.8125H18.9079C19.2584 7.8125 19.4059 8.00975 19.3391 8.36096Z" fill="#B99579"/>
</svg>
