<svg width="24" height="24" viewBox="0 0 24 24" fill="none" xmlns="http://www.w3.org/2000/svg">
<path d="M10.415 14.3688L14.0377 12.1917L10.415 10.0146V14.3688Z" fill="#B99579"/>
<path fill-rule="evenodd" clip-rule="evenodd" d="M6 0C2.68629 0 0 2.68629 0 6V18C0 21.3137 2.68629 24 6 24H18C21.3137 24 24 21.3137 24 18V6C24 2.68629 21.3137 0 18 0H6ZM19.1998 12.0105C19.1998 12.0105 19.1998 14.1501 18.903 15.1817C18.737 15.7463 18.2504 16.1913 17.6336 16.3432C16.507 16.6149 11.9998 16.6149 11.9998 16.6149C11.9998 16.6149 7.50454 16.6149 6.36596 16.3329C5.74921 16.181 5.26255 15.7354 5.09658 15.1707C4.7998 14.1501 4.7998 11.9996 4.7998 11.9996C4.7998 11.9996 4.7998 9.86056 5.09658 8.82841C5.26255 8.26372 5.76046 7.80785 6.36596 7.65589C7.49259 7.38417 11.9998 7.38417 11.9998 7.38417C11.9998 7.38417 16.507 7.38417 17.6336 7.6662C17.9247 7.73767 18.1871 7.87482 18.4001 8.05961C18.6386 8.26566 18.8151 8.53029 18.903 8.82841C19.211 9.86056 19.1998 12.0105 19.1998 12.0105Z" fill="#B99579"/>
</svg>
