<svg width="32" height="32" viewBox="0 0 32 32" fill="none" xmlns="http://www.w3.org/2000/svg">
<path d="M13.8867 19.16L18.7169 16.2572L13.8867 13.3545V19.16Z" fill="white"/>
<path fill-rule="evenodd" clip-rule="evenodd" d="M6 0C2.68629 0 0 2.68629 0 6V26C0 29.3137 2.68629 32 6 32H26C29.3137 32 32 29.3137 32 26V6C32 2.68629 29.3137 0 26 0H6ZM27.1997 16.0179C27.1997 16.0179 27.1997 19.3557 26.7381 20.9648C26.4799 21.8458 25.7229 22.5398 24.7635 22.7769C23.011 23.2008 15.9998 23.2008 15.9998 23.2008C15.9998 23.2008 9.00717 23.2008 7.23605 22.7608C6.27665 22.5238 5.51963 21.8287 5.26146 20.9478C4.7998 19.3557 4.7998 16.0008 4.7998 16.0008C4.7998 16.0008 4.7998 12.664 5.26146 11.0538C5.51963 10.1729 6.29415 9.46172 7.23605 9.22466C8.98858 8.80078 15.9998 8.80078 15.9998 8.80078C15.9998 8.80078 23.011 8.80078 24.7635 9.24074C25.2164 9.35223 25.6244 9.56618 25.9559 9.85446C26.3267 10.1759 26.6013 10.5887 26.7381 11.0538C27.2172 12.664 27.1997 16.0179 27.1997 16.0179Z" fill="white"/>
</svg>
